<svg id="svg" xmlns="http://www.w3.org/2000/svg" xmlns:xlink="http://www.w3.org/1999/xlink" width="400" height="400" viewBox="0, 0, 400,400"><g id="svgg"><path id="path0" d="M236.254 15.493 C 225.483 22.479,217.417 35.847,214.194 52.054 C 213.145 57.331,212.662 58.504,211.719 58.073 C 196.906 51.315,168.228 47.397,164.063 51.563 C 160.425 55.200,161.706 58.454,170.117 66.943 C 176.956 73.845,184.136 82.547,187.882 88.474 L 189.238 90.619 185.049 88.712 C 170.820 82.236,143.185 78.690,139.063 82.813 C 135.416 86.459,136.697 89.669,145.269 98.355 C 156.444 109.680,166.855 124.016,169.579 131.832 C 170.440 134.303,170.325 134.523,164.943 140.620 C 148.430 159.329,139.057 181.264,137.611 204.581 L 137.109 212.678 130.469 214.591 C 126.816 215.644,121.922 217.536,119.593 218.796 C 117.264 220.056,115.275 221.001,115.173 220.895 C 113.814 219.488,119.485 195.389,123.013 187.574 C 126.310 180.272,125.916 177.192,121.445 175.324 C 113.008 171.798,106.020 186.554,102.269 215.820 C 101.732 220.010,101.090 223.437,100.842 223.437 C 100.594 223.437,98.105 222.024,95.313 220.297 C 72.591 206.250,41.314 211.893,25.420 232.909 C 10.815 252.219,9.057 276.089,18.873 321.803 C 29.730 372.364,61.736 397.459,98.672 384.371 L 106.327 381.658 113.906 384.364 C 131.612 390.689,151.187 387.580,165.119 376.232 L 169.674 372.522 177.220 375.635 C 237.836 400.646,306.974 385.809,352.001 338.126 C 374.102 314.723,387.500 285.285,387.500 260.129 C 387.500 249.583,388.335 250.000,367.188 250.000 L 350.000 250.000 349.997 225.977 C 349.991 183.815,343.867 164.764,322.557 140.620 C 317.175 134.523,317.060 134.303,317.921 131.832 C 320.645 124.016,331.056 109.680,342.231 98.355 C 350.803 89.669,352.084 86.459,348.438 82.813 C 344.329 78.704,316.685 82.234,302.533 88.675 L 298.426 90.544 299.325 88.827 C 301.339 84.982,310.934 73.385,317.746 66.564 C 325.772 58.526,327.045 55.170,323.438 51.563 C 319.271 47.396,290.665 51.304,275.781 58.072 C 274.838 58.501,274.365 57.347,273.354 52.154 C 270.247 36.193,261.951 22.437,251.246 15.493 C 245.129 11.525,242.371 11.525,236.254 15.493 M248.756 31.241 C 255.333 38.136,259.762 48.748,261.396 61.522 L 261.920 65.623 254.920 72.460 C 251.070 76.220,246.988 80.527,245.849 82.031 L 243.778 84.766 241.299 81.641 C 239.935 79.922,235.837 75.616,232.191 72.072 L 225.563 65.629 226.026 61.723 C 227.475 49.488,232.306 37.990,238.906 31.071 C 244.133 25.592,243.355 25.578,248.756 31.241 M194.938 66.359 C 213.321 71.466,228.672 83.943,237.016 100.560 C 239.795 106.093,239.898 105.955,232.562 106.519 C 228.987 106.794,222.858 107.826,218.944 108.813 L 211.826 110.608 210.579 105.499 C 208.780 98.131,200.880 82.758,194.742 74.682 C 186.549 63.902,187.156 64.844,188.397 64.844 C 188.995 64.844,191.938 65.525,194.938 66.359 M299.119 66.283 C 298.529 67.075,295.667 70.855,292.758 74.682 C 286.599 82.786,278.719 98.137,276.904 105.566 L 275.640 110.742 272.000 109.643 C 269.998 109.038,265.275 108.044,261.506 107.432 C 253.180 106.081,253.564 106.310,252.352 101.984 C 249.562 92.017,271.571 72.282,291.964 66.467 C 299.126 64.424,300.530 64.388,299.119 66.283 M170.328 97.699 C 178.263 99.880,187.702 104.574,193.359 109.154 C 199.482 114.111,199.682 115.556,194.577 117.947 C 192.416 118.959,188.642 121.120,186.190 122.748 L 181.732 125.708 178.171 119.079 C 176.212 115.433,172.324 109.414,169.531 105.703 C 166.738 101.993,163.971 98.313,163.381 97.525 C 161.954 95.619,162.837 95.641,170.328 97.699 M324.119 97.525 C 323.529 98.313,320.762 101.993,317.969 105.703 C 315.176 109.414,311.296 115.417,309.348 119.044 L 305.805 125.638 301.425 122.758 C 299.017 121.174,295.234 119.030,293.019 117.992 C 287.810 115.552,287.990 114.134,294.141 109.154 C 303.123 101.883,328.115 92.188,324.119 97.525 M219.141 130.063 C 207.237 141.443,208.542 141.025,202.862 135.285 L 198.350 130.726 204.621 127.859 C 208.070 126.283,214.154 124.086,218.141 122.978 C 222.128 121.869,225.742 120.844,226.172 120.699 C 229.510 119.574,227.981 121.610,219.141 130.063 M270.035 123.113 C 273.535 124.121,279.266 126.276,282.772 127.902 L 289.145 130.859 284.221 135.698 L 279.297 140.537 268.908 130.355 C 257.362 119.038,257.299 119.446,270.035 123.113 M257.049 161.914 C 250.232 168.682,244.356 174.219,243.991 174.219 C 243.627 174.219,237.710 168.792,230.844 162.160 L 218.359 150.102 231.024 137.435 L 243.689 124.769 256.567 137.189 L 269.444 149.609 257.049 161.914 M198.247 150.071 C 198.137 150.341,192.393 156.042,185.483 162.739 L 172.919 174.916 168.079 170.033 L 163.239 165.149 167.282 159.333 C 169.507 156.133,174.817 150.036,179.084 145.784 L 186.842 138.052 192.644 143.816 C 195.836 146.986,198.357 149.801,198.247 150.071 M309.327 146.680 C 313.448 150.869,318.571 156.880,320.710 160.038 L 324.600 165.779 319.526 170.347 L 314.453 174.915 301.706 162.262 L 288.959 149.609 294.621 144.336 C 301.623 137.814,300.416 137.621,309.327 146.680 M224.513 174.860 C 229.616 180.000,233.581 184.544,233.326 184.958 C 233.070 185.372,227.310 190.995,220.527 197.452 L 208.193 209.194 195.437 196.736 L 182.682 184.278 195.442 171.927 L 208.203 159.577 211.719 162.546 C 213.652 164.179,219.410 169.721,224.513 174.860 M304.463 184.091 C 304.605 184.519,299.001 190.330,292.010 197.004 L 279.297 209.138 266.406 196.686 L 253.516 184.233 266.362 171.848 L 279.207 159.463 291.705 171.388 C 298.579 177.947,304.320 183.663,304.463 184.091 M160.173 181.658 L 162.841 184.410 157.502 189.666 C 151.496 195.579,151.583 195.744,154.831 184.570 C 156.738 178.012,156.673 178.047,160.173 181.658 M332.669 184.570 C 335.917 195.744,336.004 195.579,329.998 189.666 L 324.659 184.410 327.327 181.658 C 330.827 178.047,330.762 178.012,332.669 184.570 M198.438 218.789 C 198.438 219.058,195.449 221.998,191.797 225.323 C 188.145 228.648,185.156 230.997,185.156 230.545 C 185.156 227.184,166.099 215.648,157.672 213.908 L 152.943 212.931 162.976 203.450 L 173.009 193.968 185.723 206.134 C 192.716 212.825,198.438 218.520,198.438 218.789 M269.121 218.750 C 269.110 218.965,263.473 224.676,256.594 231.442 L 244.086 243.743 231.223 231.297 L 218.359 218.852 231.036 206.173 L 243.713 193.494 256.427 205.927 C 263.419 212.765,269.132 218.535,269.121 218.750 M328.320 206.999 C 340.965 219.385,341.061 218.306,326.019 232.774 L 314.538 243.818 301.945 231.242 L 289.353 218.667 301.902 206.249 L 314.452 193.830 316.796 195.919 C 318.086 197.068,323.271 202.054,328.320 206.999 M76.882 227.090 C 79.421 227.718,85.140 230.142,89.590 232.475 C 94.040 234.809,98.203 236.719,98.840 236.719 C 99.764 236.719,100.000 237.928,100.000 242.663 L 100.000 248.607 97.852 248.082 C 96.670 247.794,94.454 246.701,92.927 245.654 C 85.867 240.813,78.310 245.855,81.832 253.057 C 82.919 255.279,84.478 256.507,89.357 258.984 L 95.512 262.109 106.154 262.109 C 121.414 262.109,131.250 257.378,131.250 250.037 C 131.250 243.922,125.380 241.704,119.573 245.625 C 113.780 249.537,113.276 249.312,113.317 242.826 L 113.352 237.109 123.278 232.256 C 144.705 221.778,160.442 223.896,174.571 239.157 C 186.781 252.344,188.982 266.334,183.977 298.930 C 174.759 358.968,152.528 383.412,117.960 371.519 C 107.772 368.014,104.728 368.014,94.540 371.519 C 59.885 383.442,37.752 359.039,28.486 298.689 C 22.846 261.960,27.590 243.858,45.920 232.155 C 56.062 225.680,65.161 224.191,76.882 227.090 M225.370 244.472 L 230.817 250.000 213.651 249.997 L 196.484 249.994 195.010 246.409 L 193.535 242.823 200.812 235.516 L 208.089 228.209 214.005 233.576 C 217.259 236.529,222.373 241.432,225.370 244.472 M301.563 249.741 C 301.563 249.884,291.455 249.998,279.102 249.997 L 256.641 249.993 267.967 239.178 L 279.293 228.362 290.428 238.922 C 296.552 244.730,301.563 249.599,301.563 249.741 M337.500 245.313 L 337.500 250.000 332.642 250.000 L 327.783 250.000 332.422 245.313 C 334.973 242.734,337.159 240.625,337.280 240.625 C 337.401 240.625,337.500 242.734,337.500 245.313 M348.002 264.648 C 334.318 327.873,257.700 366.530,195.912 341.385 C 189.085 338.606,188.790 338.319,189.864 335.492 C 194.097 324.361,200.000 287.587,200.000 272.355 L 200.000 262.500 274.234 262.500 L 348.467 262.500 348.002 264.648 M374.219 263.976 C 374.219 275.232,365.474 297.904,355.630 312.170 C 317.977 366.738,247.425 388.579,186.143 364.639 L 178.145 361.514 181.022 356.255 L 183.898 350.995 189.410 353.281 C 259.577 382.372,346.503 338.867,361.038 267.383 L 362.031 262.500 368.125 262.500 C 373.579 262.500,374.219 262.655,374.219 263.976 M314.063 276.563 C 313.021 277.604,312.500 279.167,312.500 281.250 C 312.500 283.333,313.021 284.896,314.063 285.938 C 315.104 286.979,316.667 287.500,318.750 287.500 C 320.833 287.500,322.396 286.979,323.438 285.938 C 324.479 284.896,325.000 283.333,325.000 281.250 C 325.000 279.167,324.479 277.604,323.438 276.563 C 322.396 275.521,320.833 275.000,318.750 275.000 C 316.667 275.000,315.104 275.521,314.063 276.563 M214.063 289.063 C 213.021 290.104,212.500 291.667,212.500 293.750 C 212.500 295.833,213.021 297.396,214.063 298.438 C 215.104 299.479,216.667 300.000,218.750 300.000 C 220.833 300.000,222.396 299.479,223.438 298.438 C 224.479 297.396,225.000 295.833,225.000 293.750 C 225.000 291.667,224.479 290.104,223.438 289.063 C 222.396 288.021,220.833 287.500,218.750 287.500 C 216.667 287.500,215.104 288.021,214.063 289.063 M251.563 289.063 C 250.521 290.104,250.000 291.667,250.000 293.750 C 250.000 295.833,250.521 297.396,251.563 298.438 C 252.604 299.479,254.167 300.000,256.250 300.000 C 258.333 300.000,259.896 299.479,260.938 298.438 C 261.979 297.396,262.500 295.833,262.500 293.750 C 262.500 291.667,261.979 290.104,260.938 289.063 C 259.896 288.021,258.333 287.500,256.250 287.500 C 254.167 287.500,252.604 288.021,251.563 289.063 M282.813 307.813 C 281.771 308.854,281.250 310.417,281.250 312.500 C 281.250 314.583,281.771 316.146,282.813 317.188 C 283.854 318.229,285.417 318.750,287.500 318.750 C 289.583 318.750,291.146 318.229,292.188 317.188 C 293.229 316.146,293.750 314.583,293.750 312.500 C 293.750 310.417,293.229 308.854,292.188 307.813 C 291.146 306.771,289.583 306.250,287.500 306.250 C 285.417 306.250,283.854 306.771,282.813 307.813 M232.813 326.563 C 231.771 327.604,231.250 329.167,231.250 331.250 C 231.250 333.333,231.771 334.896,232.813 335.938 C 233.854 336.979,235.417 337.500,237.500 337.500 C 239.583 337.500,241.146 336.979,242.188 335.938 C 243.229 334.896,243.750 333.333,243.750 331.250 C 243.750 329.167,243.229 327.604,242.188 326.563 C 241.146 325.521,239.583 325.000,237.500 325.000 C 235.417 325.000,233.854 325.521,232.813 326.563 " stroke="none" fill="#000000" fill-rule="evenodd"></path></g></svg>