<svg id="svg" version="1.1" xmlns="http://www.w3.org/2000/svg" xmlns:xlink="http://www.w3.org/1999/xlink" width="400" height="400" viewBox="0, 0, 400,400"><g id="svgg"><path id="path0" d="M95.551 11.265 L 93.359 13.155 93.399 27.476 C 93.565 87.736,124.150 117.307,175.731 107.078 C 180.617 106.109,180.232 105.810,183.730 113.281 C 195.497 138.413,201.559 167.822,203.135 207.422 C 203.896 226.518,203.780 232.157,202.211 252.539 L 201.324 264.062 198.348 264.062 C 189.947 264.062,177.156 259.630,164.011 252.164 C 119.172 226.697,83.348 217.781,55.078 225.053 C 37.289 229.628,15.402 243.735,3.584 258.244 L 0.000 262.643 0.000 296.998 C -0.000 339.429,-1.730 335.217,16.475 337.107 C 57.594 341.376,70.324 345.120,125.391 369.139 C 172.211 389.560,178.138 391.366,198.438 391.389 C 216.558 391.411,224.104 389.412,259.968 375.089 C 274.896 369.127,288.340 363.991,289.844 363.675 C 312.224 358.978,332.626 345.112,345.024 326.172 C 351.318 316.556,400.000 206.246,400.000 201.600 C 400.000 189.774,367.835 194.954,352.203 209.298 C 349.917 211.395,335.407 227.698,319.959 245.527 L 291.872 277.943 288.463 274.152 C 286.335 271.785,283.099 269.397,279.851 267.797 L 274.647 265.234 245.056 265.004 L 215.465 264.773 215.992 257.582 C 217.504 236.990,223.564 212.024,231.150 195.137 L 233.510 189.884 236.849 191.062 C 277.883 205.539,305.791 175.619,307.580 115.234 L 307.996 101.172 305.891 99.219 C 301.888 95.506,276.271 96.187,259.431 100.454 C 223.956 109.442,207.318 141.639,218.857 178.969 L 220.446 184.110 218.529 188.657 L 216.612 193.203 216.076 187.031 C 213.335 155.474,206.001 126.669,195.231 105.154 L 191.318 97.339 193.795 90.777 C 208.414 52.044,192.806 24.934,149.609 14.031 C 130.365 9.174,99.791 7.610,95.551 11.265 M120.060 23.404 C 169.010 27.455,191.361 45.681,184.035 75.576 C 182.138 83.316,182.216 83.307,176.380 76.530 C 168.115 66.933,151.007 54.345,142.341 51.484 C 137.347 49.836,132.813 52.631,132.813 57.358 C 132.813 61.639,133.388 62.285,140.582 66.078 C 149.959 71.022,156.440 76.055,164.784 84.871 C 173.981 94.589,174.133 94.186,160.938 95.031 C 128.162 97.128,109.002 75.400,107.276 34.180 L 106.794 22.656 109.061 22.669 C 110.308 22.676,115.257 23.007,120.060 23.404 M294.032 117.773 C 291.273 162.327,274.982 184.818,249.151 179.737 C 241.338 178.199,240.389 177.685,241.499 175.593 C 245.524 168.004,257.104 154.905,266.989 146.758 C 275.697 139.581,275.319 132.031,266.252 132.031 C 260.665 132.031,244.249 146.692,234.759 160.156 L 230.078 166.797 229.574 161.328 C 226.686 129.999,247.321 111.376,285.314 111.023 L 294.455 110.938 294.032 117.773 M382.452 210.108 C 382.203 210.511,371.859 233.879,359.466 262.038 C 346.431 291.655,335.488 315.453,333.505 318.498 C 323.763 333.459,308.712 344.041,289.666 349.320 C 284.823 350.662,270.313 355.978,257.422 361.133 C 220.482 375.904,215.173 377.370,198.429 377.422 C 180.868 377.476,176.780 376.216,133.594 357.443 C 76.098 332.448,58.582 327.164,22.266 323.856 C 19.258 323.582,16.006 323.193,15.039 322.992 L 13.281 322.626 13.281 295.409 L 13.281 268.192 20.140 261.580 C 55.077 227.900,96.083 228.582,156.096 263.839 C 166.318 269.844,173.581 273.055,182.513 275.517 L 190.234 277.645 230.469 278.080 C 274.501 278.557,272.672 278.354,277.628 283.310 C 286.275 291.957,282.571 306.285,270.783 309.785 C 267.549 310.746,258.908 310.938,218.804 310.942 C 167.554 310.947,162.779 311.222,149.149 314.958 C 142.119 316.884,142.224 316.651,145.012 324.174 C 147.258 330.233,147.160 330.178,152.734 328.481 C 164.328 324.952,167.595 324.754,222.266 324.281 L 274.609 323.828 279.090 321.728 C 288.065 317.522,294.910 308.115,295.888 298.646 L 296.350 294.163 328.958 256.652 C 365.289 214.859,366.100 214.109,378.906 210.504 C 380.840 209.960,382.531 209.483,382.663 209.445 C 382.796 209.406,382.701 209.705,382.452 210.108 " stroke="none" fill="#000000" fill-rule="evenodd"></path></g></svg>