<svg id="svg" xmlns="http://www.w3.org/2000/svg" xmlns:xlink="http://www.w3.org/1999/xlink" width="400" height="400" viewBox="0, 0, 400,400"><g id="svgg"><path id="path0" d="M180.078 0.509 C 42.286 15.324,-39.537 159.541,18.579 285.156 C 67.220 390.292,199.007 431.880,299.609 373.842 C 378.095 328.563,416.473 236.957,393.799 149.019 C 374.270 73.278,311.095 15.798,232.465 2.230 C 223.308 0.650,189.192 -0.471,180.078 0.509 M219.552 28.926 C 348.528 44.538,415.200 191.327,341.572 297.573 C 260.285 414.871,79.547 387.993,36.036 252.137 C -1.722 134.243,97.056 14.099,219.552 28.926 M176.953 111.282 C 173.785 112.722,94.818 192.000,93.786 194.777 C 92.644 197.850,92.768 202.714,94.063 205.689 C 95.477 208.937,174.656 287.936,177.590 289.027 C 186.814 292.454,196.875 285.708,196.875 276.096 C 196.875 270.350,195.115 268.218,167.750 240.820 L 141.024 214.063 217.973 214.045 C 291.439 214.029,295.067 213.962,298.138 212.568 C 308.627 207.804,308.800 192.948,298.430 187.387 C 295.850 186.003,292.224 185.938,218.376 185.938 L 141.024 185.938 167.750 159.180 C 195.115 131.782,196.875 129.650,196.875 123.904 C 196.875 114.022,186.037 107.155,176.953 111.282 " stroke="none" fill="#000000" fill-rule="evenodd"></path></g></svg>