<svg id="svg" xmlns="http://www.w3.org/2000/svg" xmlns:xlink="http://www.w3.org/1999/xlink" width="400" height="400" viewBox="0, 0, 400,400"><g id="svgg"><path id="path0" d="M176.172 0.910 C 24.279 18.056,-52.312 196.716,39.412 319.922 C 128.986 440.238,316.771 421.765,380.914 286.328 C 448.384 143.865,333.127 -16.807,176.172 0.910 M229.297 21.040 C 379.090 47.363,433.731 232.442,321.722 334.099 C 205.497 439.584,19.194 357.003,19.194 200.000 C 19.194 105.458,88.805 29.098,183.984 19.231 C 192.585 18.340,220.204 19.442,229.297 21.040 M166.209 152.932 L 117.969 201.176 169.729 252.932 L 221.489 304.688 234.573 291.605 L 247.656 278.521 209.183 240.042 L 170.709 201.563 206.060 166.205 L 241.412 130.848 228.315 117.768 C 221.111 110.574,215.045 104.688,214.833 104.688 C 214.621 104.688,192.741 126.398,166.209 152.932 " stroke="none" fill="#000000" fill-rule="evenodd"></path></g></svg>