<svg id="svg" xmlns="http://www.w3.org/2000/svg" xmlns:xlink="http://www.w3.org/1999/xlink" width="400" height="400" viewBox="0, 0, 400,400"><g id="svgg"><path id="path0" d="M122.564 32.424 C 118.489 34.639,117.969 37.284,117.969 55.782 L 117.969 72.656 114.027 72.656 C 109.226 72.656,106.250 75.048,106.250 78.906 C 106.250 84.561,112.387 86.431,124.435 84.449 C 130.434 83.462,130.416 83.530,130.444 61.914 L 130.469 42.969 138.242 42.969 L 146.016 42.969 146.250 62.089 C 146.543 85.959,145.295 84.005,160.946 85.109 C 199.246 87.810,224.721 99.634,251.953 127.350 L 259.766 135.301 243.359 134.918 C 233.401 134.686,224.408 134.056,220.477 133.315 C 207.974 130.957,205.369 135.429,212.413 147.157 C 218.461 157.226,228.125 177.987,228.125 180.910 C 228.125 181.640,216.033 176.831,207.381 172.660 C 194.117 166.264,182.673 158.347,172.240 148.347 C 162.305 138.824,160.348 138.019,156.498 141.868 C 154.516 143.850,154.485 144.050,154.982 151.438 C 156.229 169.960,151.879 192.109,142.835 213.297 C 138.065 224.470,138.668 224.640,132.846 210.480 C 125.252 192.009,121.881 174.822,121.877 154.549 C 121.874 136.601,118.906 135.342,105.671 147.676 C 101.048 151.984,94.102 157.789,90.234 160.577 C 80.029 167.934,49.219 182.885,49.219 180.480 C 49.219 176.975,58.883 156.131,65.254 145.892 C 72.537 134.190,69.190 131.346,51.119 133.878 C 44.723 134.774,37.815 135.129,29.635 134.982 L 17.578 134.766 26.563 125.743 C 43.642 108.591,61.503 97.250,80.858 91.269 C 89.445 88.616,91.406 87.100,91.406 83.117 C 91.406 66.660,43.083 89.583,14.453 119.620 C -3.495 138.451,-4.682 145.265,9.766 146.526 C 12.773 146.788,15.650 147.130,16.158 147.285 C 16.777 147.474,16.174 149.701,14.323 154.057 C 2.446 182.014,4.349 214.048,19.442 240.234 C 23.989 248.123,46.876 281.505,49.304 283.789 C 52.028 286.353,54.521 286.517,57.317 284.318 C 61.616 280.936,60.832 279.101,45.410 256.452 C 37.732 245.176,30.213 233.575,28.701 230.671 C 16.173 206.615,16.181 177.025,28.723 153.516 L 31.641 148.047 40.234 147.549 C 50.518 146.953,49.831 146.488,46.989 152.119 C 37.145 171.618,31.792 190.570,35.005 194.539 C 40.423 201.230,86.190 182.038,105.554 164.956 L 109.155 161.779 109.687 168.976 C 111.872 198.532,129.347 242.187,138.994 242.188 C 147.196 242.188,165.019 196.956,166.888 171.396 C 167.583 161.899,167.535 161.935,173.443 166.565 C 189.617 179.241,214.265 191.281,233.089 195.701 C 240.412 197.420,244.512 194.542,243.375 188.480 C 242.272 182.597,236.719 167.049,232.130 156.992 L 227.426 146.684 230.315 147.162 C 231.903 147.424,235.889 147.643,239.171 147.648 L 245.138 147.656 248.305 153.743 C 261.276 178.675,260.567 210.542,246.524 233.864 C 237.221 249.313,175.653 338.371,171.261 342.732 C 153.808 360.062,124.662 360.492,106.695 343.684 C 103.145 340.364,97.761 333.250,88.242 319.302 C 70.654 293.531,69.723 292.706,64.325 298.104 C 61.003 301.426,61.912 303.372,77.357 326.019 C 100.744 360.315,112.291 368.270,138.672 368.263 C 164.715 368.257,176.029 360.468,199.108 326.654 L 212.109 307.605 212.680 314.360 C 215.224 344.500,242.469 368.914,273.345 368.723 C 296.035 368.582,322.692 352.224,313.817 343.886 C 310.953 341.196,308.041 341.712,302.249 345.935 C 254.190 380.971,197.074 316.247,238.978 274.235 C 272.868 240.258,331.129 272.011,319.938 318.359 C 317.305 329.264,322.457 335.493,328.823 329.102 C 333.306 324.600,334.846 302.628,331.474 291.260 L 329.924 286.035 333.126 285.518 C 343.528 283.838,353.903 273.276,353.906 264.364 C 353.906 262.207,354.298 261.781,357.357 260.613 C 365.333 257.567,372.624 247.684,372.680 239.844 C 372.704 236.543,372.913 236.202,376.095 234.273 C 381.713 230.867,386.719 221.883,386.719 215.207 C 386.719 213.718,387.032 212.500,387.416 212.500 C 387.799 212.500,389.825 210.961,391.917 209.079 C 408.462 194.204,398.169 165.625,376.267 165.625 L 372.123 165.625 375.586 161.914 C 391.921 144.409,402.766 115.911,394.410 112.450 C 388.648 110.063,366.535 119.440,353.320 129.873 L 348.438 133.728 348.438 131.420 C 348.437 115.383,336.220 85.938,329.567 85.938 C 322.374 85.937,312.132 108.252,310.304 127.905 L 309.766 133.690 304.495 129.486 C 289.291 117.360,266.422 108.948,261.944 113.834 L 259.813 116.160 250.811 108.381 C 225.210 86.258,191.535 72.656,162.365 72.656 L 158.674 72.656 158.439 54.231 L 158.203 35.807 155.652 33.528 L 153.100 31.250 138.855 31.281 C 128.062 31.305,124.114 31.582,122.564 32.424 M333.356 117.783 C 337.327 130.732,336.142 150.589,330.642 163.281 L 329.119 166.797 327.791 163.672 C 321.198 148.148,321.051 127.488,327.413 110.547 L 329.173 105.859 330.218 108.408 C 330.793 109.810,332.205 114.029,333.356 117.783 M283.027 130.965 C 299.889 139.450,314.391 155.163,314.835 165.430 C 314.840 165.537,313.331 165.625,311.481 165.625 C 303.028 165.625,287.635 151.049,279.739 135.568 C 275.269 126.804,275.134 126.993,283.027 130.965 M380.837 131.055 C 374.296 146.818,355.966 165.625,347.143 165.625 C 345.277 165.625,343.750 165.415,343.750 165.159 C 343.750 155.206,360.409 137.511,376.789 130.065 C 382.158 127.625,382.250 127.647,380.837 131.055 M274.372 151.367 C 276.302 154.268,279.686 158.615,281.892 161.029 L 285.905 165.417 280.529 165.802 C 276.758 166.072,274.092 166.780,271.595 168.176 L 268.037 170.165 266.773 165.746 C 266.077 163.316,264.261 158.401,262.736 154.823 C 259.652 147.584,259.775 147.108,264.844 146.670 C 266.777 146.503,268.923 146.305,269.612 146.230 C 270.371 146.148,272.248 148.173,274.372 151.367 M287.080 178.858 C 287.329 179.262,286.932 181.753,286.198 184.395 C 284.882 189.128,285.162 193.902,287.146 200.536 C 287.587 202.013,287.284 202.314,284.895 202.762 C 273.856 204.833,265.804 189.256,274.053 181.790 C 277.568 178.610,285.783 176.761,287.080 178.858 M316.467 179.901 C 325.247 185.818,324.727 196.836,315.450 201.440 C 303.871 207.186,292.688 192.888,300.749 182.641 C 304.347 178.067,311.814 176.765,316.467 179.901 M354.322 180.051 C 358.205 182.327,360.156 185.930,360.156 190.823 C 360.156 200.802,347.711 206.459,340.222 199.884 C 328.645 189.720,341.049 172.273,354.322 180.051 M381.559 179.896 C 387.189 183.123,389.294 191.189,385.942 196.687 C 381.687 203.665,368.687 205.644,371.512 198.883 C 372.974 195.384,372.987 186.290,371.536 182.177 C 370.254 178.545,370.516 178.276,375.391 178.200 C 377.272 178.170,379.727 178.845,381.559 179.896 M84.730 200.355 C 80.855 204.230,83.601 210.938,89.063 210.938 C 92.274 210.938,95.313 207.899,95.313 204.688 C 95.313 201.476,92.274 198.438,89.063 198.438 C 87.540 198.438,85.939 199.146,84.730 200.355 M184.500 199.688 C 181.998 201.440,181.135 204.125,182.144 207.019 C 184.430 213.575,193.750 211.724,193.750 204.714 C 193.750 199.604,188.608 196.810,184.500 199.688 M338.114 213.461 C 341.206 214.828,341.494 215.181,341.048 217.059 C 338.318 228.570,322.209 229.158,317.637 217.914 L 316.503 215.125 320.962 213.078 C 323.414 211.952,326.258 210.141,327.280 209.052 L 329.139 207.074 331.913 209.509 C 333.438 210.848,336.229 212.627,338.114 213.461 M270.781 212.317 C 271.253 212.632,271.842 214.904,272.090 217.365 C 272.767 224.102,280.602 235.938,284.384 235.938 C 284.698 235.938,285.196 237.754,285.491 239.975 C 285.785 242.195,286.496 245.138,287.071 246.514 L 288.117 249.016 284.879 248.216 C 283.098 247.777,277.598 247.406,272.656 247.393 C 264.269 247.372,262.305 247.672,252.428 250.489 C 250.698 250.982,250.800 250.667,253.814 246.230 C 255.603 243.595,258.656 238.180,260.597 234.196 C 263.567 228.100,264.887 224.468,268.409 212.695 C 268.738 211.595,269.515 211.471,270.781 212.317 M300.230 213.291 C 303.474 214.726,303.853 215.185,304.573 218.562 C 306.951 229.713,288.160 228.704,284.832 217.503 C 284.398 216.040,284.892 215.717,289.448 214.484 C 292.254 213.724,294.742 212.791,294.977 212.411 C 295.590 211.419,296.248 211.529,300.230 213.291 M364.062 212.890 C 365.309 213.535,368.077 214.437,370.215 214.896 C 374.094 215.728,374.100 215.734,373.294 218.046 C 371.294 223.782,364.294 227.582,358.774 225.928 C 349.696 223.208,351.273 215.219,361.562 211.797 C 361.691 211.754,362.816 212.246,364.062 212.890 M59.375 232.813 C 56.340 235.848,57.650 241.433,61.731 242.856 C 67.831 244.982,72.663 238.355,68.693 233.308 C 66.627 230.682,61.764 230.423,59.375 232.813 M108.730 233.058 C 105.655 236.331,106.792 241.406,110.921 242.846 C 117.164 245.022,121.969 238.466,117.912 233.308 C 115.749 230.559,111.194 230.435,108.730 233.058 M159.375 232.813 C 155.538 236.650,158.236 243.125,163.672 243.125 C 167.658 243.125,169.531 241.178,169.531 237.033 C 169.531 231.665,163.167 229.020,159.375 232.813 M208.594 232.813 C 206.629 234.777,206.545 239.070,208.425 241.392 C 211.653 245.379,219.531 242.384,219.531 237.171 C 219.531 232.046,212.258 229.148,208.594 232.813 M318.974 236.725 C 323.031 238.520,323.135 238.749,321.579 242.472 C 318.152 250.674,307.456 252.165,301.258 245.305 C 297.813 241.492,297.590 239.274,300.586 238.633 C 304.470 237.802,309.318 235.843,311.120 234.378 C 312.637 233.144,313.063 233.093,314.091 234.017 C 314.751 234.611,316.949 235.830,318.974 236.725 M348.382 235.117 C 349.558 235.954,352.689 237.243,355.339 237.979 C 360.638 239.453,360.866 239.843,358.598 243.562 C 353.052 252.658,339.382 251.117,336.169 241.032 C 335.445 238.758,335.536 238.649,340.175 236.234 C 345.967 233.218,345.756 233.247,348.382 235.117 M337.695 260.153 C 341.680 261.913,342.066 262.863,340.235 266.405 C 336.114 274.375,325.889 275.510,320.017 268.649 C 315.943 263.889,315.926 262.114,319.942 260.581 C 321.756 259.888,324.602 258.132,326.268 256.678 L 329.297 254.034 331.641 256.274 C 332.930 257.506,335.654 259.251,337.695 260.153 M84.730 265.199 C 80.855 269.074,83.601 275.781,89.063 275.781 C 92.274 275.781,95.313 272.743,95.313 269.531 C 95.313 266.319,92.274 263.281,89.063 263.281 C 87.540 263.281,85.939 263.990,84.730 265.199 M134.284 264.760 C 130.094 268.153,132.847 275.781,138.262 275.781 C 141.798 275.781,144.531 273.056,144.531 269.531 C 144.531 264.215,138.453 261.385,134.284 264.760 M184.612 264.216 C 182.245 265.360,181.111 268.901,182.154 271.891 C 184.442 278.453,193.750 276.407,193.750 269.342 C 193.750 264.647,189.109 262.044,184.612 264.216 M264.453 279.176 C 231.648 290.048,238.308 337.084,272.656 337.104 C 311.545 337.128,313.072 279.713,274.219 278.369 C 270.179 278.230,266.354 278.546,264.453 279.176 M279.127 291.678 C 296.692 299.039,291.807 325.070,272.877 324.983 C 263.767 324.941,255.477 316.760,255.477 307.813 C 255.477 296.329,268.699 287.309,279.127 291.678 M269.816 294.664 C 268.116 295.487,266.406 298.377,266.406 300.427 C 266.406 301.052,265.895 301.563,265.271 301.563 C 262.902 301.563,260.205 303.424,259.455 305.576 C 258.005 309.735,260.677 314.063,264.695 314.063 C 265.751 314.063,266.352 314.766,266.675 316.382 C 268.098 323.497,278.906 323.468,278.906 316.350 C 278.906 314.466,279.232 314.063,280.754 314.063 C 281.770 314.063,283.528 313.334,284.660 312.443 C 288.946 309.072,286.251 301.563,280.754 301.563 C 279.232 301.563,278.906 301.159,278.906 299.275 C 278.906 295.148,273.979 292.648,269.816 294.664 M108.624 297.804 C 106.552 300.028,106.537 304.193,108.594 306.250 C 112.233 309.889,119.531 307.022,119.531 301.953 C 119.531 296.787,112.178 293.989,108.624 297.804 M159.105 297.522 C 155.472 301.537,158.339 307.813,163.808 307.813 C 169.093 307.813,171.953 300.871,168.103 297.387 C 166.131 295.602,160.770 295.683,159.105 297.522 M134.284 329.604 C 130.094 332.997,132.847 340.625,138.262 340.625 C 141.798 340.625,144.531 337.900,144.531 334.375 C 144.531 329.058,138.453 326.228,134.284 329.604 " stroke="none" fill="#000000" fill-rule="evenodd"></path></g></svg>