<svg id="svg" xmlns="http://www.w3.org/2000/svg" xmlns:xlink="http://www.w3.org/1999/xlink" width="400" height="400" viewBox="0, 0, 400,400"><g id="svgg"><path id="path0" d="M85.180 0.869 C 77.988 3.739,74.238 10.310,74.226 20.061 L 74.219 26.449 58.008 26.701 C 36.099 27.042,28.232 30.847,22.126 44.059 L 19.922 48.828 19.715 180.298 L 19.509 311.768 21.438 313.696 C 23.986 316.245,28.001 316.299,30.333 313.817 L 32.031 312.009 32.031 217.332 L 32.031 122.656 174.132 122.656 C 335.155 122.656,319.886 123.311,319.886 116.406 C 319.886 109.502,335.155 110.156,174.132 110.156 L 32.031 110.156 32.031 82.129 C 32.031 40.572,32.976 39.112,59.889 39.080 L 74.075 39.063 74.342 50.645 C 74.599 61.767,74.695 62.357,76.764 65.482 C 80.715 71.448,89.155 75.194,94.471 73.341 C 101.055 71.046,99.339 62.699,92.015 61.393 C 87.403 60.571,86.719 58.875,86.719 48.264 L 86.719 39.063 186.719 39.063 L 286.719 39.063 286.719 48.296 C 286.719 54.144,287.140 58.946,287.867 61.395 C 291.459 73.492,310.938 78.940,310.938 67.848 C 310.938 64.289,308.782 61.719,305.799 61.719 C 300.943 61.719,299.219 58.153,299.219 48.107 L 299.219 39.063 326.758 39.080 C 369.162 39.106,367.969 37.859,367.969 82.129 L 367.969 110.156 351.668 110.156 C 332.735 110.156,331.250 110.611,331.250 116.406 C 331.250 122.202,332.735 122.656,351.668 122.656 L 367.969 122.656 367.969 199.363 C 367.969 275.348,367.954 276.101,366.351 279.411 C 363.098 286.132,362.481 286.273,334.355 286.719 L 309.726 287.109 304.505 289.681 C 292.195 295.745,290.625 300.191,290.625 328.980 C 290.625 357.964,289.379 361.911,279.566 364.016 C 274.325 365.140,52.723 365.172,46.805 364.049 C 36.099 362.019,32.590 356.507,32.035 340.845 C 31.583 328.105,31.079 326.989,25.781 326.989 C 19.834 326.989,19.922 326.587,19.922 353.837 L 19.922 377.929 23.047 384.048 C 26.692 391.186,31.665 395.749,38.643 398.360 L 43.057 400.011 201.021 399.810 L 358.984 399.609 363.435 397.523 C 369.335 394.758,374.554 389.394,377.598 382.969 L 380.078 377.734 380.317 216.016 C 380.569 46.332,380.625 49.456,377.165 42.635 C 371.005 30.493,363.368 27.033,341.992 26.701 L 325.781 26.449 325.781 20.005 C 325.781 6.877,319.985 0.585,307.466 0.124 C 293.994 -0.373,287.575 5.738,286.871 19.727 L 286.528 26.563 199.904 26.563 L 113.281 26.563 113.281 21.440 C 113.281 11.585,109.918 5.028,103.072 1.536 C 99.739 -0.165,88.793 -0.573,85.180 0.869 M99.023 14.555 C 100.464 16.143,100.781 17.402,100.781 21.528 L 100.781 26.563 93.750 26.563 L 86.719 26.563 86.719 21.548 C 86.719 12.259,93.465 8.425,99.023 14.555 M309.275 12.582 C 312.563 13.728,313.281 15.315,313.281 21.433 L 313.281 26.563 306.250 26.563 L 299.219 26.563 299.219 21.590 C 299.219 16.097,300.905 12.889,304.117 12.268 C 305.075 12.083,306.071 11.884,306.329 11.825 C 306.587 11.767,307.913 12.107,309.275 12.582 M183.730 180.714 C 177.878 186.943,182.855 191.406,195.652 191.406 L 205.437 191.406 205.648 244.504 C 205.883 303.444,205.506 299.597,211.130 300.510 C 213.465 300.889,214.292 300.622,215.958 298.957 L 217.969 296.946 217.969 239.625 L 217.969 182.304 216.161 180.605 C 213.276 177.895,186.293 177.986,183.730 180.714 M330.890 327.313 C 315.442 342.765,302.788 355.334,302.769 355.243 C 302.750 355.152,302.910 344.355,303.125 331.250 C 303.677 297.568,301.964 299.220,336.324 299.219 L 358.976 299.219 330.890 327.313 M367.199 374.959 C 365.981 379.480,362.297 383.952,358.078 386.029 L 354.297 387.891 202.779 388.098 C 102.306 388.235,49.809 388.036,46.952 387.508 C 39.673 386.163,34.111 380.985,32.510 374.065 L 32.022 371.957 36.519 374.065 L 41.016 376.172 168.359 376.172 L 295.703 376.172 300.409 373.618 C 304.141 371.593,311.570 364.608,336.346 339.825 L 367.578 308.586 367.782 340.309 C 367.908 359.857,367.684 373.156,367.199 374.959 " stroke="none" fill="#000000" fill-rule="evenodd"></path></g></svg>