<svg id="svg" xmlns="http://www.w3.org/2000/svg" xmlns:xlink="http://www.w3.org/1999/xlink" width="400" height="400.40816326530614" viewBox="0, 0, 400,400.40816326530614"><g id="svgg"><path id="path0" d="M189.388 0.271 C 148.502 3.136,113.980 15.394,82.670 38.163 C -4.190 101.330,-25.752 220.487,33.378 310.564 C 45.987 329.773,51.702 333.883,60.208 329.859 C 68.709 325.838,69.605 317.245,62.470 308.163 C -18.243 205.425,38.896 52.602,167.143 28.206 C 293.022 4.260,401.611 120.051,369.400 243.878 C 340.606 354.570,213.570 408.871,114.591 352.796 C 103.934 346.759,93.305 352.115,93.947 363.197 C 94.321 369.662,96.891 372.100,110.548 378.948 C 200.021 423.810,309.539 395.002,365.672 311.837 C 433.295 211.648,397.337 75.284,288.980 20.994 C 258.595 5.771,221.390 -1.971,189.388 0.271 M291.154 144.081 C 290.217 144.276,288.839 144.742,288.092 145.116 C 287.346 145.489,262.994 169.516,233.978 198.509 L 181.221 251.224 150.420 220.408 C 116.196 186.166,117.876 187.618,112.461 187.621 C 103.698 187.626,97.838 196.333,100.968 204.694 C 101.949 207.314,172.068 277.867,175.682 279.871 C 178.587 281.481,183.696 281.541,186.643 279.999 C 189.495 278.507,303.687 164.332,304.983 161.677 C 309.395 152.637,301.046 142.013,291.154 144.081 " stroke="none" fill="#000000" fill-rule="evenodd"></path></g></svg>