<svg id="svg" xmlns="http://www.w3.org/2000/svg" xmlns:xlink="http://www.w3.org/1999/xlink" width="400" height="400" viewBox="0, 0, 400,400"><g id="svgg"><path id="path0" d="M180.944 1.635 C 174.083 3.995,168.740 7.781,163.237 14.184 L 158.306 19.922 153.176 20.426 C 149.727 20.764,144.209 22.406,136.328 25.439 C 120.506 31.528,118.347 31.551,98.077 25.845 C 77.506 20.055,70.043 20.867,60.965 29.879 C 54.248 36.547,53.579 39.149,53.070 60.547 C 52.518 83.758,52.852 82.730,40.398 99.572 C 34.601 107.411,32.417 111.723,31.258 117.614 L 30.339 122.285 24.662 125.285 C -8.053 142.575,-3.255 187.020,32.301 196.053 C 66.930 204.851,112.513 201.026,148.671 186.288 C 155.633 183.450,162.971 180.464,164.979 179.653 L 168.630 178.177 170.909 182.253 C 186.866 210.787,201.563 240.990,201.563 245.247 C 201.563 245.606,199.189 244.990,196.289 243.878 C 185.227 239.637,165.071 241.374,159.607 247.039 C 149.338 257.684,159.503 272.111,181.250 277.754 C 186.399 279.090,200.924 279.088,204.102 277.752 C 205.388 277.211,205.469 278.727,205.469 303.389 L 205.469 329.601 199.956 325.804 C 176.951 309.956,143.817 312.394,142.353 330.041 C 141.420 341.292,157.781 358.104,165.594 353.923 C 170.478 351.309,169.082 346.501,161.448 339.645 C 151.130 330.379,152.504 327.675,167.188 328.346 C 180.879 328.971,190.388 332.971,200.126 342.202 C 208.678 350.308,206.908 352.631,192.578 352.111 C 183.017 351.764,180.999 352.302,179.652 355.555 C 176.897 362.206,180.695 364.453,194.691 364.453 L 205.468 364.453 205.468 380.517 C 205.469 398.933,205.805 400.000,211.613 400.000 C 218.110 400.000,217.969 400.784,217.969 364.598 L 217.969 332.813 225.927 332.812 C 257.020 332.812,283.018 304.473,262.476 292.971 C 255.690 289.171,236.799 290.489,227.096 295.439 C 222.842 297.609,222.884 297.387,228.522 287.910 C 237.337 273.092,259.117 247.656,262.990 247.656 C 263.560 247.656,268.264 250.456,273.443 253.878 C 302.357 272.982,328.449 281.347,359.766 281.553 C 371.136 281.628,373.636 281.422,377.140 280.122 C 399.965 271.654,404.229 240.747,384.580 226.192 C 381.647 224.020,381.414 223.557,380.996 219.079 C 380.508 213.850,379.494 210.973,373.586 198.047 L 369.658 189.453 372.340 175.781 C 378.362 145.082,370.289 136.086,339.078 138.713 L 324.910 139.905 315.021 133.838 C 309.581 130.501,303.362 127.172,301.200 126.440 C 297.695 125.253,296.948 124.572,294.321 120.172 C 279.330 95.053,243.532 100.146,237.157 128.304 C 233.894 142.718,234.162 151.195,237.926 152.640 C 243.035 154.600,246.547 151.926,247.260 145.533 C 250.068 120.352,259.713 110.888,274.868 118.440 C 279.825 120.910,285.098 127.344,282.165 127.344 C 271.842 127.344,252.284 167.365,251.476 190.141 C 251.360 193.407,249.613 186.402,248.381 177.734 C 247.207 169.473,246.398 167.503,243.723 166.395 C 230.137 160.767,234.207 192.518,251.824 229.589 L 255.304 236.913 248.916 242.612 C 238.905 251.543,226.375 266.441,220.573 276.313 L 218.359 280.078 217.851 269.141 C 216.673 243.813,213.484 234.818,190.309 191.455 C 184.467 180.525,179.687 171.289,179.688 170.932 C 179.688 170.574,183.553 164.879,188.278 158.277 C 216.152 119.325,228.060 87.106,230.178 44.903 C 231.785 12.879,208.290 -7.770,180.944 1.635 M203.746 14.743 C 218.879 22.550,221.611 41.579,212.901 78.516 C 208.599 96.762,194.505 131.211,196.440 118.750 C 198.402 106.121,198.290 85.163,196.203 73.995 C 194.114 62.821,182.772 64.755,183.983 76.079 C 186.110 95.977,185.646 110.152,182.394 124.670 C 178.797 140.729,179.958 141.373,168.750 117.098 C 157.282 92.262,155.189 89.806,149.682 94.727 C 145.845 98.155,145.941 98.467,160.020 128.516 C 172.251 154.619,173.127 156.784,172.203 158.641 C 170.593 161.873,166.302 165.594,163.062 166.564 L 160.054 167.466 138.030 145.452 C 113.600 121.033,112.662 120.396,108.650 125.496 C 105.029 130.100,105.462 130.765,124.805 150.239 L 142.578 168.133 128.906 167.714 C 103.644 166.939,82.310 160.315,62.013 146.943 C 39.804 132.312,38.000 124.362,52.425 104.688 C 64.316 88.471,65.591 84.264,65.611 61.184 C 65.628 42.493,66.682 39.526,74.609 35.856 C 79.041 33.804,80.105 33.926,95.884 38.287 C 118.204 44.456,121.982 44.354,141.323 37.056 C 160.393 29.860,168.584 32.151,175.042 46.487 C 178.911 55.078,183.272 57.353,187.591 53.034 C 192.204 48.421,182.858 30.080,173.091 24.574 C 170.407 23.061,177.793 16.250,185.064 13.532 C 189.367 11.924,199.564 12.585,203.746 14.743 M34.222 138.220 C 41.892 155.547,83.144 175.996,118.389 179.942 L 126.953 180.901 117.969 183.046 C 81.422 191.772,35.850 189.062,23.211 177.411 C 11.199 166.339,13.460 146.380,27.647 138.243 C 32.603 135.400,32.974 135.399,34.222 138.220 M308.492 144.751 C 321.748 152.782,321.796 152.792,339.711 151.251 C 362.183 149.318,364.244 151.454,360.074 172.354 C 356.396 190.787,356.484 191.901,362.655 205.078 C 368.636 217.849,369.070 219.348,367.970 223.431 C 364.406 236.669,327.307 247.790,300.020 243.800 C 289.111 242.205,288.829 242.883,305.021 231.753 C 320.403 221.180,321.515 220.068,320.754 216.012 C 319.237 207.928,315.511 209.060,293.198 224.380 C 282.797 231.522,273.942 237.579,273.519 237.840 C 272.414 238.523,267.260 233.765,266.704 231.548 C 266.331 230.061,267.488 227.949,272.326 221.283 C 292.360 193.686,294.531 190.449,294.531 188.173 C 294.531 183.717,289.210 180.643,285.207 182.785 C 284.432 183.200,279.460 189.578,274.159 196.958 C 262.930 212.590,262.845 212.591,263.631 197.002 C 264.372 182.295,267.869 168.883,274.297 156.091 C 284.935 134.923,289.675 133.351,308.492 144.751 M380.479 239.643 C 387.624 248.726,384.832 262.130,374.706 267.357 C 366.118 271.790,338.006 268.999,316.478 261.576 C 303.820 257.211,303.755 257.082,314.180 257.055 C 335.608 256.999,364.100 248.329,372.973 239.165 C 376.361 235.666,377.402 235.732,380.479 239.643 M190.775 255.451 C 195.648 256.956,203.880 261.974,204.477 263.803 C 204.942 265.227,196.506 266.631,189.810 266.243 C 181.563 265.766,166.283 258.405,168.642 256.046 C 171.069 253.618,183.739 253.278,190.775 255.451 M255.795 303.599 C 260.208 305.293,247.841 315.617,237.613 318.778 C 231.864 320.555,219.235 320.948,218.267 319.381 C 217.436 318.038,226.634 309.837,231.812 307.304 C 238.879 303.846,251.399 301.912,255.795 303.599 " stroke="none" fill="#000000" fill-rule="evenodd"></path></g></svg>