<svg id="svg" version="1.1" xmlns="http://www.w3.org/2000/svg" xmlns:xlink="http://www.w3.org/1999/xlink" width="400" height="400" viewBox="0, 0, 400,400"><g id="svgg"><path id="path0" d="M128.322 7.855 C 118.242 12.963,117.463 17.289,120.763 49.825 C 123.495 76.768,123.197 76.845,114.070 51.563 C 107.169 32.446,105.671 29.545,101.086 26.414 C 86.744 16.622,67.991 27.419,68.877 44.961 L 69.168 50.728 81.180 68.460 C 89.253 80.377,92.963 86.498,92.494 87.128 C 92.111 87.643,90.109 90.135,88.046 92.665 C 72.517 111.709,71.495 130.051,83.207 179.492 C 83.613 181.207,83.465 181.250,77.163 181.253 C 68.102 181.257,62.512 185.203,62.503 191.602 L 62.500 193.750 43.750 193.750 L 25.000 193.750 25.000 200.839 C 25.000 212.849,29.423 223.138,38.345 231.885 C 41.904 235.375,42.376 236.149,41.312 236.750 C 10.360 254.216,-3.208 306.205,13.658 342.709 C 38.181 395.786,109.397 411.082,151.462 372.305 L 154.895 369.141 250.690 368.750 L 346.484 368.359 351.172 366.061 C 357.154 363.128,363.128 357.154,366.061 351.172 L 368.359 346.484 368.572 282.617 L 368.785 218.750 377.166 218.747 C 391.472 218.742,393.744 216.173,393.744 200.000 C 393.744 182.423,392.953 181.797,370.039 181.250 L 353.674 180.859 352.180 175.391 C 347.751 159.170,335.003 140.392,323.019 132.438 L 319.000 129.770 324.240 124.415 C 332.686 115.783,336.719 105.719,336.719 93.274 L 336.719 87.407 315.820 87.654 C 289.199 87.969,281.438 90.639,271.429 102.927 L 267.969 107.174 267.969 99.845 C 267.969 82.264,277.211 69.572,290.039 69.539 L 292.969 69.531 292.969 62.891 L 292.969 56.250 289.595 56.250 C 278.459 56.250,265.287 64.807,259.389 75.874 C 255.490 83.188,254.716 88.701,254.701 109.271 L 254.688 127.526 252.930 127.043 C 235.400 122.229,216.994 126.810,204.647 139.062 L 199.529 144.141 199.850 133.516 C 200.354 116.831,195.433 101.895,185.910 91.211 C 181.107 85.822,180.058 88.816,193.931 68.321 L 205.831 50.742 206.123 44.967 C 207.018 27.236,188.277 16.621,173.737 26.625 C 169.114 29.806,168.099 31.784,160.944 51.563 C 151.764 76.938,151.502 76.840,154.312 49.096 C 157.388 18.716,156.742 14.390,148.294 8.796 C 143.743 5.782,133.376 5.294,128.322 7.855 M141.602 20.917 C 143.409 22.503,143.362 24.650,141.016 47.656 C 139.942 58.184,139.064 67.236,139.063 67.773 C 139.063 68.311,138.359 68.750,137.500 68.750 C 136.641 68.750,135.937 68.311,135.937 67.773 C 135.936 67.236,135.058 58.184,133.984 47.656 C 132.911 37.129,132.032 27.076,132.032 25.316 C 132.031 19.595,137.324 17.161,141.602 20.917 M93.942 38.154 C 95.167 39.354,96.796 43.492,105.844 68.397 L 108.412 75.466 106.178 76.748 L 103.944 78.030 93.241 62.257 C 87.354 53.582,82.384 45.700,82.196 44.741 C 80.936 38.310,89.309 33.614,93.942 38.154 M189.081 37.510 C 195.510 40.789,194.879 42.922,181.759 62.257 L 171.056 78.030 168.822 76.748 L 166.588 75.466 169.159 68.397 C 170.573 64.509,173.379 56.758,175.394 51.172 C 179.507 39.771,180.597 37.716,183.053 36.726 C 185.491 35.744,185.665 35.767,189.081 37.510 M144.727 82.379 C 158.957 83.795,173.888 94.534,181.220 108.628 C 188.231 122.104,188.395 129.805,182.302 159.570 L 177.864 181.250 144.010 181.250 C 125.390 181.250,110.156 181.089,110.156 180.892 C 110.156 179.776,117.620 176.438,121.014 176.036 L 125.000 175.564 125.000 169.032 L 125.000 162.500 121.626 162.500 C 114.493 162.500,105.134 166.636,99.050 172.478 C 96.935 174.508,96.045 174.964,95.771 174.156 C 90.719 159.233,87.155 128.088,89.479 119.166 C 95.107 97.562,119.475 79.008,138.672 81.712 C 139.531 81.833,142.256 82.134,144.727 82.379 M322.656 100.977 C 322.654 103.456,317.658 112.104,314.270 115.492 C 307.307 122.455,299.093 124.953,283.062 124.985 L 275.109 125.000 275.754 122.751 C 278.869 111.891,289.712 102.432,300.917 100.801 C 308.161 99.746,322.656 99.863,322.656 100.977 M156.250 112.500 L 156.250 118.750 162.500 118.750 L 168.750 118.750 168.750 112.500 L 168.750 106.250 162.500 106.250 L 156.250 106.250 156.250 112.500 M156.250 137.500 L 156.250 143.750 162.500 143.750 L 168.750 143.750 168.750 137.500 L 168.750 131.250 162.500 131.250 L 156.250 131.250 156.250 137.500 M310.470 140.900 C 323.001 147.097,334.050 161.829,339.415 179.492 L 339.949 181.250 268.021 181.250 C 200.034 181.250,196.095 181.175,196.108 179.883 C 196.135 177.268,201.326 165.907,205.382 159.584 C 216.814 141.762,232.924 134.821,250.195 140.273 L 254.688 141.692 254.688 147.799 C 254.688 151.158,254.390 153.906,254.027 153.906 C 253.017 153.906,244.282 148.098,243.068 146.619 C 241.444 144.640,240.637 144.964,236.157 149.387 C 231.086 154.395,231.084 154.582,236.044 158.531 C 253.322 172.288,271.831 172.118,287.359 158.060 L 291.516 154.297 286.833 149.692 L 282.149 145.088 279.161 147.431 C 275.261 150.488,269.774 153.906,268.766 153.906 C 268.274 153.906,267.969 150.741,267.969 145.651 L 267.969 137.396 286.177 137.643 L 304.386 137.891 310.470 140.900 M156.250 162.500 L 156.250 168.750 162.500 168.750 L 168.750 168.750 168.750 162.500 L 168.750 156.250 162.500 156.250 L 156.250 156.250 156.250 162.500 M87.500 200.091 L 87.500 206.432 84.410 203.640 C 82.711 202.105,79.898 200.123,78.160 199.237 C 72.187 196.189,73.560 193.750,81.250 193.750 L 87.500 193.750 87.500 200.091 M381.250 200.000 L 381.250 206.250 368.750 206.250 L 356.250 206.250 356.250 231.250 L 356.250 256.250 261.133 256.202 L 166.016 256.155 161.779 250.699 C 147.537 232.354,125.169 226.682,102.148 235.576 C 100.897 236.060,100.781 235.372,100.781 227.427 L 100.781 218.750 222.656 218.750 L 344.531 218.750 344.531 212.500 L 344.531 206.250 222.165 206.250 L 99.798 206.250 100.355 200.601 C 100.661 197.495,101.079 194.682,101.283 194.351 C 101.487 194.021,164.564 193.750,241.452 193.750 L 381.250 193.750 381.250 200.000 M59.741 207.068 C 72.223 208.872,85.938 220.779,85.938 229.812 C 85.938 232.790,63.417 231.307,55.884 227.833 C 48.203 224.291,39.063 213.344,39.063 207.688 C 39.063 205.986,49.991 205.659,59.741 207.068 M331.250 237.500 L 331.250 243.750 337.500 243.750 L 343.750 243.750 343.750 237.500 L 343.750 231.250 337.500 231.250 L 331.250 231.250 331.250 237.500 M87.500 251.953 C 87.500 257.539,87.218 260.156,86.616 260.156 C 85.391 260.156,80.738 257.297,76.692 254.060 L 73.306 251.350 68.684 255.924 C 63.055 261.495,63.036 260.809,68.945 265.281 C 82.319 275.400,95.661 277.635,107.813 271.792 C 113.392 269.110,123.438 262.198,123.438 261.042 C 123.438 260.743,121.358 258.440,118.816 255.924 L 114.194 251.350 110.808 254.060 C 101.619 261.413,100.000 261.582,100.000 255.183 L 100.000 250.209 108.008 247.670 C 125.388 242.158,138.205 244.911,148.888 256.450 C 182.563 292.823,170.159 352.857,124.623 373.897 C 61.411 403.102,-4.050 335.095,27.285 272.773 C 38.289 250.887,49.583 243.822,73.633 243.776 L 87.500 243.750 87.500 251.953 M356.250 287.500 L 356.250 306.250 268.868 306.250 L 181.486 306.250 181.014 298.633 C 180.532 290.846,178.094 280.176,175.124 272.852 L 173.460 268.750 264.855 268.750 L 356.250 268.750 356.250 287.500 M331.250 287.500 L 331.250 293.750 337.500 293.750 L 343.750 293.750 343.750 287.500 L 343.750 281.250 337.500 281.250 L 331.250 281.250 331.250 287.500 M31.250 310.813 C 31.250 339.115,60.901 368.750,89.219 368.750 L 93.813 368.750 93.586 362.305 L 93.359 355.859 87.795 355.304 C 66.008 353.131,46.355 333.349,44.738 311.965 L 44.306 306.250 37.778 306.250 L 31.250 306.250 31.250 310.813 M356.098 329.883 C 355.624 345.000,352.954 350.485,344.141 354.453 C 340.995 355.868,166.406 357.196,166.406 355.804 C 166.406 355.538,167.070 354.386,167.882 353.246 C 172.577 346.646,178.832 330.873,180.091 322.461 L 180.646 318.750 268.546 318.750 L 356.447 318.750 356.098 329.883 M331.250 337.500 L 331.250 343.750 337.500 343.750 L 343.750 343.750 343.750 337.500 L 343.750 331.250 337.500 331.250 L 331.250 331.250 331.250 337.500 " stroke="none" fill="#000000" fill-rule="evenodd"></path></g></svg>