<svg id="svg" version="1.1" xmlns="http://www.w3.org/2000/svg" xmlns:xlink="http://www.w3.org/1999/xlink" width="400" height="400" viewBox="0, 0, 400,400"><g id="svgg"><path id="path0" d="M209.464 8.645 C 189.596 12.177,154.435 32.445,132.847 52.810 L 127.540 57.817 122.950 55.016 C 81.218 29.556,23.855 19.380,7.938 34.613 C -8.097 49.959,2.198 108.490,28.454 151.256 L 30.424 154.465 24.982 154.921 C 5.994 156.513,-5.597 175.223,1.966 192.075 C 5.175 199.226,14.354 206.947,19.727 207.014 C 20.947 207.029,21.094 207.977,21.094 215.825 C 21.094 258.427,39.324 299.729,69.649 325.829 C 75.632 330.978,78.048 331.592,81.535 328.850 C 85.850 325.455,84.748 322.958,74.389 312.663 C 47.999 286.437,35.216 257.276,33.822 220.117 L 33.360 207.813 183.781 207.812 C 354.043 207.812,337.855 208.459,337.855 201.656 C 337.855 195.080,354.806 195.752,177.841 195.313 L 20.581 194.922 17.646 192.683 C 8.609 185.790,9.788 173.341,19.922 168.664 C 24.838 166.395,375.172 166.413,380.169 168.682 C 388.200 172.329,390.923 183.312,385.418 189.855 C 381.579 194.416,378.585 195.312,367.183 195.312 C 357.371 195.313,356.883 195.390,355.043 197.230 C 350.114 202.159,353.800 207.813,361.942 207.813 L 366.642 207.812 366.167 219.727 C 363.544 285.633,319.907 336.111,255.078 348.230 C 246.891 349.761,167.507 350.582,154.321 349.273 C 137.715 347.624,124.002 343.844,108.516 336.648 C 97.828 331.681,93.750 332.381,93.750 339.184 C 93.750 343.125,94.933 344.194,103.953 348.405 L 111.414 351.888 108.326 354.264 C 96.183 363.609,98.140 382.654,112.004 390.069 L 115.234 391.797 197.983 392.010 C 292.730 392.253,286.472 392.669,293.477 385.664 C 302.511 376.630,301.588 361.424,291.567 354.221 L 288.558 352.058 298.381 347.183 C 348.415 322.349,378.906 272.355,378.906 215.152 C 378.906 207.945,379.060 207.029,380.273 207.014 C 381.025 207.005,383.114 206.328,384.914 205.511 C 405.344 196.235,405.073 166.798,384.469 157.137 L 380.078 155.078 351.808 154.688 L 323.537 154.297 343.857 115.884 L 364.177 77.471 367.050 78.684 C 388.197 87.610,406.511 57.169,388.435 43.136 C 382.896 38.835,331.654 9.844,327.734 8.793 C 306.731 3.160,292.412 31.448,309.243 45.322 C 312.509 48.014,316.882 40.073,278.141 101.805 L 244.954 154.688 237.684 154.688 C 230.738 154.688,230.450 154.620,231.223 153.176 C 233.720 148.509,231.060 142.969,226.321 142.969 C 223.051 142.969,222.050 143.795,218.042 149.805 L 214.786 154.687 186.690 154.688 C 171.237 154.688,158.594 154.579,158.594 154.446 C 158.594 151.732,167.168 133.137,170.464 128.705 C 171.152 127.779,177.703 125.675,190.603 122.236 C 214.072 115.980,216.891 114.199,212.918 108.136 C 210.364 104.237,209.165 104.237,194.522 108.138 C 187.090 110.118,180.895 111.624,180.756 111.485 C 180.617 111.346,184.359 104.539,189.072 96.358 L 197.640 81.483 208.667 78.579 C 221.799 75.119,223.005 74.617,224.133 72.143 C 227.344 65.095,221.897 61.858,211.621 64.707 L 206.479 66.133 210.393 59.434 C 216.046 49.759,215.281 44.219,208.293 44.219 C 204.450 44.219,204.343 44.357,193.272 63.668 C 187.734 73.327,183.019 81.235,182.793 81.240 C 182.568 81.246,181.361 77.319,180.111 72.513 C 177.620 62.932,176.298 60.938,172.439 60.938 C 165.149 60.937,164.719 63.982,169.515 81.656 C 174.234 99.048,174.268 96.519,169.199 105.350 L 165.007 112.652 164.441 109.256 C 162.150 95.514,154.134 80.506,143.579 70.198 L 138.261 65.006 142.373 61.296 C 171.436 35.065,211.187 15.708,223.558 21.762 C 236.726 28.207,240.635 72.909,231.593 113.667 C 228.836 126.092,229.811 129.688,235.938 129.688 C 247.914 129.687,253.697 58.576,244.065 29.753 C 238.152 12.056,227.347 5.465,209.464 8.645 M353.275 36.995 C 377.975 51.227,381.011 53.193,382.314 55.790 C 384.907 60.961,380.627 67.590,374.802 67.425 C 372.664 67.365,320.903 38.514,316.605 34.988 C 312.642 31.736,314.275 24.364,319.558 21.662 C 323.385 19.704,322.824 19.449,353.275 36.995 M52.280 41.520 C 79.225 46.672,115.764 62.778,131.518 76.448 C 152.639 94.775,158.825 123.774,146.833 148.242 L 143.674 154.687 140.063 154.688 C 133.311 154.688,133.594 156.033,133.594 123.953 C 133.594 92.252,133.582 92.188,127.685 92.188 C 121.615 92.188,121.532 92.502,121.094 117.128 L 120.703 139.083 107.650 125.987 L 94.597 112.891 94.369 96.219 C 94.116 77.722,93.758 76.563,88.300 76.563 C 83.014 76.563,82.031 78.683,82.031 90.088 L 82.031 100.376 66.828 85.188 C 50.343 68.719,48.705 67.707,44.570 71.449 C 41.147 74.547,42.288 78.371,48.570 84.849 L 54.170 90.625 48.531 90.625 C 38.622 90.625,34.502 95.196,39.119 101.067 L 40.738 103.125 53.777 103.125 L 66.815 103.125 79.247 115.575 L 91.679 128.025 77.169 128.271 C 60.510 128.552,59.375 128.949,59.375 134.496 C 59.375 140.562,59.623 140.625,83.415 140.625 L 104.329 140.625 111.328 147.656 L 118.327 154.688 82.003 154.688 L 45.680 154.687 41.642 148.242 C 18.831 111.824,5.345 58.168,15.697 45.008 C 20.407 39.020,32.950 37.824,52.280 41.520 M338.281 62.412 C 346.600 67.267,352.639 71.269,352.509 71.841 C 352.386 72.388,342.542 91.248,330.634 113.752 L 308.984 154.670 284.526 154.679 L 260.068 154.688 261.870 151.702 C 269.136 139.665,323.128 53.953,323.438 53.963 C 323.652 53.971,330.332 57.773,338.281 62.412 M282.913 363.724 C 287.889 366.297,288.573 372.931,284.286 377.039 L 281.929 379.297 200.000 379.297 L 118.071 379.297 115.740 377.063 C 111.494 372.996,111.935 366.900,116.682 364.005 C 120.141 361.896,278.859 361.627,282.913 363.724 " stroke="none" fill="#000000" fill-rule="evenodd"></path></g></svg>