<svg id="svg" version="1.1" xmlns="http://www.w3.org/2000/svg" xmlns:xlink="http://www.w3.org/1999/xlink" width="400" height="400" viewBox="0, 0, 400,400"><g id="svgg"><path id="path0" d="M192.969 1.348 C 184.951 5.198,167.969 26.728,167.969 33.043 C 167.969 36.133,171.125 39.062,174.453 39.063 C 177.558 39.063,178.215 38.386,182.794 30.469 C 186.722 23.677,197.453 12.500,200.045 12.500 C 203.150 12.500,214.057 24.564,218.194 32.574 C 229.309 54.094,226.746 77.018,211.050 96.484 L 206.641 101.953 206.250 79.182 C 205.808 53.407,205.740 53.125,200.000 53.125 C 194.260 53.125,194.192 53.407,193.750 79.182 L 193.359 101.953 188.437 95.797 C 180.215 85.515,176.085 75.364,175.219 63.314 C 174.269 50.077,162.500 48.335,162.500 61.430 C 162.500 80.402,173.224 101.891,188.572 113.672 L 193.660 117.578 193.705 131.876 L 193.750 146.175 189.799 141.427 C 167.281 114.369,117.128 106.875,112.948 129.944 C 105.131 173.087,142.995 214.127,187.305 210.538 L 193.750 210.016 193.750 227.136 L 193.750 244.255 189.258 245.101 C 182.598 246.355,176.312 248.945,170.549 252.810 C 167.727 254.702,165.319 256.250,165.198 256.250 C 165.077 256.250,163.718 253.997,162.178 251.242 C 154.308 237.169,142.401 238.527,132.036 254.680 C 116.284 279.228,123.062 323.213,146.057 345.667 C 147.796 347.365,149.219 349.035,149.219 349.377 C 149.219 349.720,117.630 350.000,79.022 350.000 L 8.825 350.000 6.189 351.776 C 0.311 355.738,-0.000 356.903,0.000 375.000 C 0.000 393.097,0.311 394.262,6.189 398.224 L 8.825 400.000 200.000 400.000 L 391.175 400.000 393.811 398.224 C 399.689 394.262,400.000 393.097,400.000 375.000 C 400.000 356.903,399.689 355.738,393.811 351.776 L 391.175 350.000 320.978 350.000 C 282.370 350.000,250.781 349.720,250.781 349.377 C 250.781 349.035,252.204 347.365,253.943 345.667 C 262.619 337.195,275.251 312.811,273.851 307.236 C 272.050 300.058,263.266 301.083,260.998 308.736 C 255.136 328.517,236.108 350.010,224.473 349.991 L 219.141 349.983 213.672 340.475 C 210.664 335.246,208.088 330.494,207.946 329.916 C 207.758 329.144,248.676 256.885,250.515 254.741 C 252.595 252.317,261.353 267.931,263.332 277.591 C 265.125 286.345,267.650 288.771,272.892 286.778 C 281.077 283.666,273.747 258.766,261.093 246.696 C 251.978 238.002,244.382 239.678,237.418 251.919 L 234.157 257.649 229.383 254.107 C 222.825 249.241,218.018 247.152,208.398 244.985 L 206.250 244.501 206.250 227.259 L 206.250 210.016 212.695 210.538 C 253.011 213.803,287.546 181.861,287.586 141.272 C 287.605 120.888,283.763 116.915,264.063 116.948 C 242.327 116.984,223.374 125.598,210.201 141.427 L 206.250 146.175 206.295 131.876 L 206.340 117.578 211.428 113.672 C 244.498 88.286,246.300 36.975,215.142 7.878 C 206.618 -0.083,200.006 -2.030,192.969 1.348 M150.000 130.898 C 173.772 136.506,191.635 157.998,193.473 183.203 L 193.929 189.453 178.012 173.633 C 160.615 156.341,158.819 155.243,154.688 159.375 C 150.583 163.479,151.667 165.246,168.920 182.574 L 184.715 198.438 181.616 198.410 C 156.408 198.189,132.933 179.664,126.493 154.911 C 124.686 147.967,124.238 132.719,125.786 130.853 C 127.581 128.691,140.748 128.715,150.000 130.898 M274.049 130.746 C 275.738 132.435,275.394 147.605,273.501 154.911 C 267.091 179.644,243.594 198.189,218.384 198.410 L 215.285 198.438 231.080 182.574 C 248.333 165.246,249.417 163.479,245.313 159.375 C 241.181 155.243,239.385 156.341,221.988 173.633 L 206.071 189.453 206.527 183.203 C 208.534 155.677,228.385 134.123,255.859 129.639 C 261.211 128.765,272.772 129.469,274.049 130.746 M176.758 301.844 C 191.689 327.758,203.906 349.194,203.906 349.480 C 203.906 349.766,196.466 350.000,187.373 350.000 L 170.840 350.000 167.210 347.671 C 141.622 331.251,128.289 290.063,140.641 265.594 C 142.834 261.248,147.961 254.661,149.114 254.707 C 149.387 254.718,161.826 275.929,176.758 301.844 M210.755 258.727 C 215.598 260.275,223.422 264.930,226.034 267.817 C 227.254 269.165,201.943 316.348,200.000 316.347 C 199.785 316.347,193.403 305.549,185.817 292.353 L 172.025 268.359 173.663 266.587 C 181.713 257.872,197.571 254.512,210.755 258.727 M386.264 362.193 C 388.119 362.905,388.119 387.095,386.264 387.807 C 384.649 388.427,15.351 388.427,13.736 387.807 C 12.102 387.180,11.856 362.890,13.477 362.236 C 14.884 361.668,384.785 361.626,386.264 362.193 " stroke="none" fill="#000000" fill-rule="evenodd"></path></g></svg>