<svg id="svg" version="1.1" xmlns="http://www.w3.org/2000/svg" xmlns:xlink="http://www.w3.org/1999/xlink" width="400" height="400" viewBox="0, 0, 400,400"><g id="svgg"><path id="path0" d="M146.268 1.533 C 123.190 7.754,106.899 26.505,103.918 50.278 C 103.423 54.226,103.125 90.533,103.125 146.976 L 103.125 237.353 97.542 242.700 C 75.126 264.166,61.613 305.344,78.363 301.140 C 81.344 300.392,81.949 299.315,83.966 291.169 C 88.013 274.827,94.089 264.334,106.750 251.826 L 115.578 243.106 115.806 146.358 C 116.061 38.207,115.576 47.377,121.651 35.752 C 140.181 0.294,193.913 7.039,204.316 46.129 C 205.278 49.742,205.452 64.853,205.459 145.391 C 205.470 251.717,204.924 243.063,211.990 248.877 C 268.114 295.060,234.213 386.825,160.938 387.065 C 123.306 387.188,93.324 363.749,84.045 326.953 C 81.396 316.445,77.184 313.370,72.230 318.324 C 69.841 320.713,69.841 322.158,72.229 331.575 C 85.331 383.225,139.137 412.241,190.234 395.212 C 254.672 373.736,273.595 292.020,225.273 243.898 L 217.969 236.623 217.969 142.655 C 217.969 36.453,218.351 43.308,211.718 30.559 C 199.517 7.107,171.570 -5.288,146.268 1.533 M269.667 33.058 C 267.556 35.306,267.465 39.048,269.461 41.515 L 270.954 43.359 297.351 43.585 C 325.460 43.826,327.215 43.634,328.805 40.145 C 330.155 37.181,329.872 35.270,327.770 33.168 L 325.852 31.250 298.609 31.250 L 271.366 31.250 269.667 33.058 M150.851 39.179 C 145.416 42.020,141.363 46.826,139.870 52.202 C 139.345 54.092,139.069 89.236,139.064 154.688 L 139.057 254.297 134.124 256.847 C 81.232 284.195,101.228 364.381,160.938 364.371 C 220.910 364.362,240.526 282.816,186.914 256.384 L 182.813 254.362 182.813 180.089 C 182.813 98.987,183.050 103.287,178.466 101.544 C 172.353 99.220,170.313 102.829,170.313 115.964 L 170.313 126.563 160.938 126.563 L 151.563 126.563 151.563 91.720 C 151.563 50.461,151.843 49.219,161.148 49.219 C 168.336 49.219,170.313 53.646,170.313 69.747 C 170.313 82.109,170.373 82.597,172.121 84.239 C 174.600 86.568,178.443 86.472,180.895 84.020 C 183.295 81.620,183.818 59.139,181.644 51.818 C 177.892 39.184,162.740 32.965,150.851 39.179 M269.531 80.469 C 267.528 82.472,267.494 86.740,269.462 89.171 L 270.956 91.016 291.016 91.016 L 311.076 91.016 312.569 89.171 C 314.642 86.611,314.499 82.714,312.254 80.605 C 309.550 78.065,272.055 77.945,269.531 80.469 M269.531 128.125 C 267.528 130.128,267.494 134.396,269.461 136.828 L 270.954 138.672 296.610 138.915 C 312.987 139.070,323.279 138.861,325.067 138.336 C 329.557 137.019,331.000 132.348,328.068 128.621 L 326.449 126.563 298.771 126.563 C 272.135 126.563,271.035 126.621,269.531 128.125 M170.313 200.254 L 170.312 261.446 172.070 263.013 C 173.037 263.874,175.712 265.338,178.015 266.266 C 207.413 278.111,214.864 316.461,192.173 339.135 C 159.486 371.798,104.055 338.207,118.203 294.310 C 122.496 280.992,135.066 267.970,146.301 265.201 C 151.875 263.827,151.563 267.709,151.563 199.895 L 151.563 139.063 160.938 139.063 L 170.313 139.063 170.313 200.254 M269.531 175.781 C 266.463 178.849,267.811 184.404,271.975 185.855 C 275.295 187.013,306.736 187.013,310.056 185.855 C 314.239 184.397,315.506 179.187,312.470 175.929 C 310.091 173.375,272.068 173.245,269.531 175.781 M269.531 223.438 C 268.564 224.405,267.969 226.042,267.969 227.734 C 267.969 233.669,267.576 233.594,298.771 233.594 L 326.449 233.594 328.068 231.535 C 330.123 228.924,330.123 226.545,328.068 223.933 L 326.449 221.875 298.771 221.875 C 272.135 221.875,271.035 221.934,269.531 223.438 " stroke="none" fill="#000000" fill-rule="evenodd"></path></g></svg>