<svg id="svg" version="1.1" xmlns="http://www.w3.org/2000/svg" xmlns:xlink="http://www.w3.org/1999/xlink" width="400" height="400" viewBox="0, 0, 400,400"><g id="svgg"><path id="path0" d="M252.256 2.612 C 207.640 19.591,189.842 77.747,217.375 116.588 C 218.172 117.713,217.554 120.295,213.731 131.823 L 209.126 145.703 208.091 140.625 C 197.679 89.559,151.175 51.432,99.049 51.226 C 81.346 51.157,81.156 51.344,77.723 72.266 C 76.150 81.849,76.235 83.337,78.480 85.582 C 83.374 90.477,88.088 87.276,89.552 78.066 C 90.127 74.446,90.991 69.590,91.471 67.274 L 92.344 63.063 102.226 63.513 C 160.418 66.162,204.485 119.328,197.385 178.320 C 196.592 184.916,196.448 184.893,192.280 177.531 C 176.903 150.368,141.733 106.250,135.457 106.250 C 131.795 106.250,128.906 108.890,128.906 112.237 C 128.906 114.629,129.995 116.201,137.282 124.340 C 155.739 144.952,185.938 187.154,185.938 192.335 C 185.938 194.196,169.951 191.957,159.241 188.597 C 127.288 178.571,99.927 149.110,91.832 116.016 C 89.922 108.208,89.002 107.031,84.804 107.031 C 77.777 107.031,77.004 110.350,80.872 123.900 C 93.964 169.758,139.494 205.469,184.868 205.469 L 192.188 205.469 192.180 253.320 L 192.173 301.172 190.032 297.656 C 188.032 294.373,187.857 293.366,187.386 282.422 C 185.726 243.907,161.226 211.762,124.609 200.058 C 110.295 195.483,88.330 194.727,75.001 198.351 C 64.615 201.175,64.063 201.970,64.062 214.077 C 64.062 269.756,115.815 312.387,171.314 302.424 C 178.641 301.109,178.082 300.631,183.157 312.548 C 186.976 321.515,190.353 334.112,191.122 342.258 L 191.607 347.406 178.030 347.905 C 150.098 348.930,109.118 355.379,105.119 359.378 C 103.126 361.370,103.116 365.801,105.099 367.992 C 106.978 370.068,110.318 369.890,124.219 366.974 C 141.556 363.337,166.047 360.478,184.115 359.983 L 192.058 359.766 192.318 367.844 C 192.606 376.793,193.771 378.906,198.419 378.906 C 203.398 378.906,204.688 376.564,204.688 367.516 L 204.688 359.364 209.961 359.743 C 212.861 359.951,219.629 360.316,225.000 360.554 C 261.044 362.149,304.126 371.904,329.918 384.309 L 337.891 388.143 199.609 388.178 L 61.328 388.212 64.453 386.559 C 66.172 385.651,71.270 383.366,75.781 381.484 C 84.697 377.763,85.938 376.732,85.938 373.045 C 85.938 364.269,78.844 365.067,56.826 376.316 C 36.322 386.793,30.794 392.324,35.213 397.942 L 36.832 400.000 200.326 400.000 C 362.078 400.000,363.835 399.984,365.215 398.459 C 368.163 395.202,365.549 389.879,358.726 385.246 C 328.503 364.722,273.901 349.989,219.883 347.783 C 203.770 347.125,205.179 348.134,207.105 338.636 C 210.224 323.258,216.853 307.663,225.886 294.451 C 232.519 284.751,232.273 284.909,237.987 286.687 C 284.288 301.098,334.365 265.191,335.266 216.935 C 335.435 207.861,332.770 205.115,322.070 203.341 C 318.910 202.818,318.816 203.457,323.364 194.586 C 334.090 173.666,335.246 162.500,326.684 162.500 C 322.637 162.500,321.778 163.670,318.426 173.742 C 315.533 182.437,312.154 189.542,307.614 196.481 L 305.060 200.385 296.496 201.327 C 272.614 203.953,249.367 218.244,239.063 236.634 C 234.852 244.149,235.752 243.750,222.991 243.750 C 216.791 243.750,211.719 243.537,211.719 243.276 C 211.719 243.016,214.071 239.791,216.945 236.109 C 236.893 210.563,261.051 186.951,280.078 174.404 C 292.457 166.241,294.093 163.553,289.489 158.949 C 286.419 155.880,284.051 156.448,274.982 162.431 C 253.832 176.383,230.213 198.835,210.537 223.694 C 204.079 231.853,203.978 231.723,205.474 217.196 C 210.943 164.120,254.832 123.849,306.741 124.276 C 322.552 124.406,322.679 124.478,323.386 133.746 C 324.140 143.619,325.187 145.313,330.533 145.313 C 335.238 145.313,336.200 143.086,335.725 133.294 C 334.869 115.658,334.230 114.718,321.817 112.812 C 288.926 107.761,253.380 119.319,228.423 143.178 C 224.373 147.050,221.225 149.729,221.427 149.132 C 221.629 148.535,223.774 141.961,226.194 134.522 C 229.182 125.335,231.011 120.853,231.898 120.547 C 273.157 106.317,293.790 60.090,277.284 18.866 C 269.836 0.268,265.617 -2.472,252.256 2.612 M263.874 20.337 C 278.538 49.492,267.784 86.163,239.607 103.082 C 237.973 104.063,236.530 104.738,236.400 104.581 C 236.103 104.223,246.244 75.212,251.951 60.097 C 257.672 44.944,257.312 40.625,250.330 40.625 C 245.316 40.625,244.524 42.289,230.452 82.359 L 223.615 101.827 222.372 99.424 C 207.771 71.190,221.801 31.881,251.884 16.739 C 260.393 12.456,259.824 12.285,263.874 20.337 M116.628 210.818 C 144.195 218.213,166.045 240.257,173.001 267.691 C 174.785 274.726,174.692 274.750,168.995 268.711 C 149.969 248.542,120.666 231.660,115.682 237.996 C 112.002 242.675,113.764 245.891,122.290 250.057 C 137.146 257.314,153.312 269.803,164.199 282.431 C 171.601 291.017,171.760 290.869,155.078 290.912 C 113.443 291.018,79.675 259.643,76.826 218.208 C 76.269 210.095,75.541 211.043,83.594 209.394 C 89.824 208.118,109.769 208.978,116.628 210.818 M311.812 214.009 C 323.925 215.994,324.172 216.382,321.101 228.586 C 315.528 250.740,297.201 269.391,275.000 275.503 C 268.781 277.215,251.448 277.457,246.209 275.904 L 242.808 274.897 246.124 272.019 C 253.332 265.763,263.399 259.149,273.828 253.816 C 286.925 247.119,287.500 246.668,287.500 243.093 C 287.500 233.306,275.852 236.046,253.125 251.178 C 248.613 254.183,244.494 256.915,243.971 257.251 C 243.268 257.702,243.299 257.073,244.090 254.831 C 253.470 228.247,284.509 209.537,311.812 214.009 M221.547 256.243 L 230.204 256.250 229.181 261.133 C 228.618 263.818,228.150 267.106,228.141 268.439 C 228.132 269.863,227.240 272.014,225.977 273.658 C 224.795 275.196,221.688 279.203,219.073 282.563 C 215.108 287.657,209.580 296.250,205.592 303.516 C 204.955 304.677,204.729 298.689,204.711 280.165 L 204.688 255.251 208.789 255.744 C 211.045 256.015,216.786 256.239,221.547 256.243 " stroke="none" fill="#000000" fill-rule="evenodd"></path></g></svg>