<svg id="svg" version="1.1" xmlns="http://www.w3.org/2000/svg" xmlns:xlink="http://www.w3.org/1999/xlink" width="400" height="400" viewBox="0, 0, 400,400"><g id="svgg"><path id="path0" d="M98.047 1.073 C 94.664 2.610,79.670 18.436,77.172 23.105 C 68.190 39.900,71.617 56.836,87.208 72.699 L 95.312 80.945 95.312 136.739 L 95.312 192.533 90.329 187.593 L 85.345 182.654 84.947 166.132 C 84.332 140.553,79.949 129.468,71.787 132.849 C 67.404 134.664,67.016 137.424,69.991 145.609 C 71.588 150.002,72.100 153.143,72.428 160.547 L 72.844 169.922 60.779 158.008 C 47.598 144.991,45.299 143.763,41.406 147.656 C 37.470 151.592,38.728 153.942,51.748 166.983 L 63.653 178.906 55.850 178.895 C 27.424 178.853,12.927 163.475,11.920 132.295 L 11.482 118.750 24.327 118.750 C 38.204 118.750,43.279 119.598,50.193 123.071 C 56.277 126.127,60.078 125.464,61.606 121.081 C 64.913 111.595,49.480 105.991,21.178 106.400 L 4.556 106.641 2.229 109.247 L -0.098 111.853 0.176 131.122 C 0.537 156.559,2.843 163.584,14.844 175.816 C 26.445 187.640,35.585 190.831,58.984 191.228 L 76.172 191.519 85.742 201.021 L 95.313 210.523 95.313 260.108 L 95.313 309.692 92.289 306.739 L 89.265 303.786 88.858 289.198 C 88.286 268.672,85.533 261.142,74.668 250.388 C 64.138 239.966,56.418 237.500,34.316 237.500 C 12.626 237.500,12.859 237.239,13.480 260.837 C 14.420 296.533,31.007 312.500,67.147 312.500 L 80.137 312.500 83.897 316.317 L 87.657 320.135 83.477 321.494 C 64.860 327.545,49.957 341.910,44.123 359.427 L 42.130 365.412 37.821 365.857 C 28.802 366.788,20.751 374.122,18.565 383.398 L 17.599 387.500 10.362 387.500 C 1.803 387.500,0.000 388.567,0.000 393.629 C -0.000 400.271,-22.135 399.609,200.000 399.609 C 422.135 399.609,400.000 400.271,400.000 393.629 C 400.000 388.479,398.252 387.500,389.063 387.500 C 381.997 387.500,381.250 387.363,381.250 386.062 C 381.250 376.686,366.923 364.844,355.579 364.844 L 351.060 364.844 349.319 360.991 C 345.362 352.237,336.997 346.859,326.383 346.244 L 320.313 345.893 320.313 313.365 L 320.313 280.837 330.284 270.887 L 340.256 260.937 350.168 260.938 C 380.939 260.938,395.313 246.080,395.313 214.271 C 395.313 197.446,394.710 196.875,376.943 196.875 C 345.417 196.875,331.250 210.429,331.250 240.592 L 331.250 251.995 325.781 257.422 L 320.312 262.849 320.312 229.709 L 320.312 196.570 328.483 188.279 C 348.858 167.602,348.676 147.111,327.930 126.030 C 314.477 112.361,313.661 112.348,300.674 125.594 C 278.791 147.914,278.853 167.484,300.881 190.254 L 307.812 197.419 307.813 247.710 L 307.813 298.002 302.848 293.081 L 297.883 288.160 297.432 271.619 C 296.253 228.406,278.174 210.938,234.629 210.938 L 217.946 210.938 215.028 213.613 L 212.109 216.288 212.109 233.730 C 212.109 257.314,215.063 267.335,225.358 278.679 C 237.132 291.652,247.234 295.452,271.180 295.916 L 288.063 296.244 297.963 306.166 L 307.863 316.088 307.643 325.571 L 307.422 335.053 302.734 331.520 C 282.915 316.580,249.435 312.522,252.680 325.453 C 253.651 329.322,255.991 330.469,262.913 330.469 C 279.564 330.469,296.952 339.643,307.478 353.983 C 311.461 359.409,314.541 360.611,321.224 359.350 C 330.098 357.676,336.722 361.410,339.129 369.444 C 340.895 375.341,343.485 376.893,352.342 377.361 C 360.847 377.810,363.776 379.297,367.316 384.961 L 368.903 387.500 277.811 387.500 C 205.456 387.500,186.719 387.299,186.722 386.523 C 186.734 382.304,192.446 378.126,198.203 378.124 C 205.823 378.121,208.401 375.480,211.794 364.197 C 214.886 353.917,221.739 345.269,232.011 338.685 C 239.288 334.020,240.960 329.308,236.456 326.154 C 227.668 319.999,204.063 342.521,199.131 361.767 C 197.777 367.048,196.219 366.823,193.426 360.943 C 188.773 351.145,181.085 346.494,169.531 346.488 L 162.109 346.484 159.799 343.750 C 147.071 328.686,126.901 317.969,111.277 317.969 L 107.813 317.969 107.813 299.793 L 107.813 281.618 117.784 271.668 L 127.756 261.719 137.901 261.707 C 168.639 261.672,182.818 247.027,182.810 215.323 C 182.805 197.741,182.376 197.377,162.220 197.825 C 132.337 198.490,119.650 210.830,118.921 239.941 L 118.596 252.929 113.204 258.279 L 107.812 263.630 107.813 219.890 L 107.813 176.149 117.784 166.200 L 127.756 156.250 137.901 156.238 C 168.639 156.203,182.818 141.558,182.810 109.854 C 182.805 92.273,182.376 91.908,162.220 92.357 C 132.337 93.021,119.650 105.362,118.921 134.472 L 118.596 147.460 113.204 152.811 L 107.813 158.161 107.813 119.884 L 107.813 81.606 114.499 74.983 C 136.275 53.411,136.734 31.942,115.886 10.120 C 106.747 0.554,103.176 -1.256,98.047 1.073 M107.991 20.898 C 121.156 34.181,121.865 50.352,109.781 61.705 L 107.813 63.554 107.813 54.398 C 107.813 44.058,106.562 41.406,101.685 41.406 C 96.771 41.406,95.747 43.360,95.313 53.567 L 94.922 62.742 91.904 59.397 C 85.179 51.940,83.238 39.517,87.445 30.859 C 89.085 27.486,100.195 14.844,101.521 14.844 C 101.779 14.844,104.690 17.568,107.991 20.898 M170.171 114.258 C 169.618 131.790,160.666 142.419,145.512 143.537 L 140.234 143.927 145.811 138.174 C 153.905 129.826,155.013 125.260,149.550 122.771 C 145.861 121.090,144.486 121.733,137.795 128.264 L 131.250 134.652 131.250 130.635 C 131.250 114.832,143.015 104.788,161.604 104.720 L 170.473 104.688 170.171 114.258 M320.883 136.984 C 332.847 149.446,333.956 163.760,323.812 174.782 L 320.375 178.516 320.344 169.691 C 320.308 159.634,319.017 157.031,314.063 157.031 C 309.103 157.031,307.813 159.636,307.813 169.649 L 307.813 178.432 305.008 175.739 C 293.874 165.049,294.934 149.471,307.676 136.523 C 314.873 129.211,313.371 129.159,320.883 136.984 M382.681 218.555 C 382.114 236.146,372.954 247.099,357.847 248.252 L 352.734 248.643 358.789 242.380 C 365.840 235.086,366.877 231.401,362.785 228.182 C 359.163 225.332,357.418 225.999,350.295 232.951 L 343.750 239.340 343.750 235.002 C 343.750 219.246,355.360 209.454,374.106 209.401 L 382.977 209.375 382.681 218.555 M170.171 219.727 C 169.618 237.259,160.666 247.888,145.512 249.006 L 140.234 249.395 145.811 243.643 C 153.905 235.294,155.013 230.729,149.550 228.240 C 145.861 226.559,144.486 227.201,137.795 233.732 L 131.250 240.121 131.250 236.103 C 131.250 220.301,143.015 210.257,161.604 210.189 L 170.473 210.156 170.171 219.727 M254.264 224.634 C 273.063 229.530,283.676 243.776,284.823 265.652 L 285.333 275.391 272.931 263.086 C 259.709 249.967,258.230 249.091,254.142 251.954 C 249.059 255.515,250.596 258.608,264.332 272.461 L 275.370 283.594 268.261 283.594 C 239.812 283.594,225.320 268.166,224.413 236.914 L 224.022 223.438 236.847 223.438 C 245.842 223.438,251.043 223.795,254.264 224.634 M57.199 253.327 C 69.622 259.471,76.563 271.407,76.563 286.627 L 76.563 290.936 66.923 281.405 C 56.465 271.067,53.165 269.509,49.740 273.293 C 45.969 277.461,46.652 278.925,57.515 289.957 L 67.578 300.178 59.766 299.796 C 37.881 298.725,26.683 286.027,25.952 261.455 L 25.608 249.863 38.434 250.127 L 51.261 250.391 57.199 253.327 M123.912 333.384 C 134.580 337.364,142.900 343.372,150.448 352.547 C 156.180 359.514,158.616 360.632,165.209 359.322 C 177.534 356.872,186.578 365.404,179.808 373.095 C 176.829 376.480,174.925 380.407,173.867 385.352 L 173.408 387.500 101.938 387.500 C 62.630 387.500,30.469 387.310,30.469 387.078 C 30.469 382.499,35.675 378.701,42.795 378.086 C 50.531 377.418,52.213 375.765,55.467 365.630 C 64.246 338.289,96.423 323.129,123.912 333.384 " stroke="none" fill="#000000" fill-rule="evenodd"></path></g></svg>