<svg id="svg" version="1.1" xmlns="http://www.w3.org/2000/svg" xmlns:xlink="http://www.w3.org/1999/xlink" width="400" height="400" viewBox="0, 0, 400,400"><g id="svgg"><path id="path0" d="M295.574 1.157 C 274.970 4.895,249.029 20.211,250.261 27.909 C 251.392 34.968,256.093 35.283,264.505 28.865 C 282.587 15.069,296.221 11.739,334.681 11.725 L 354.128 11.719 353.695 20.117 C 352.016 52.702,328.178 80.924,294.668 89.999 C 287.987 91.809,247.952 93.197,249.609 91.561 C 250.039 91.138,261.816 82.814,275.781 73.064 C 303.370 53.803,303.906 53.357,303.906 49.670 C 303.906 44.161,298.111 41.996,292.882 45.550 C 288.233 48.711,242.729 80.587,238.739 83.477 L 234.900 86.258 235.386 81.215 C 236.107 73.718,238.619 64.848,242.162 57.287 C 246.598 47.822,245.707 42.187,239.775 42.187 C 231.844 42.187,222.679 66.461,222.662 87.508 L 222.656 94.939 218.260 98.446 C 198.201 114.448,183.646 143.128,181.589 170.703 L 181.064 177.734 177.342 174.003 L 173.620 170.272 173.086 162.675 C 169.601 113.121,135.675 79.712,87.430 78.324 L 74.469 77.950 72.782 80.096 C 67.089 87.333,71.489 90.327,88.672 90.912 C 117.242 91.884,141.147 107.675,153.533 133.758 C 156.723 140.474,160.312 153.885,159.991 157.887 L 159.766 160.696 130.994 140.504 C 100.043 118.783,99.431 118.467,95.668 122.230 C 90.432 127.465,90.929 127.986,121.791 149.612 L 146.316 166.797 131.556 167.032 C 115.201 167.292,107.485 166.481,98.065 163.512 C 69.243 154.428,48.033 127.678,46.312 98.242 L 45.867 90.625 48.363 90.625 C 55.154 90.625,58.483 85.080,54.631 80.183 C 52.040 76.890,39.242 77.044,35.877 80.409 L 33.594 82.692 33.604 92.713 C 33.639 126.461,51.489 155.289,81.641 170.294 C 98.011 178.440,105.509 179.651,139.699 179.672 L 164.945 179.688 168.795 183.640 C 173.293 188.258,176.055 192.733,178.834 199.907 L 180.837 205.078 181.089 239.362 L 181.341 273.647 177.424 270.222 C 173.621 266.896,173.507 266.672,173.473 262.469 C 173.307 242.037,156.609 221.793,135.461 216.384 C 126.546 214.104,98.502 214.096,94.769 216.372 C 85.552 221.992,92.067 247.707,106.290 261.846 C 117.793 273.282,127.669 276.527,151.028 276.549 L 165.727 276.563 169.839 280.674 C 179.519 290.354,181.250 297.377,181.250 326.959 L 181.250 349.017 177.489 349.516 C 175.421 349.791,170.587 351.593,166.747 353.521 C 160.102 356.858,159.443 357.028,153.071 357.029 C 133.904 357.035,118.945 369.219,115.566 387.580 C 113.172 400.583,111.176 400.000,158.082 400.000 C 202.441 400.000,200.000 400.349,200.000 394.005 C 200.000 388.048,201.524 388.281,162.674 388.281 L 128.206 388.281 129.071 385.742 C 132.690 375.112,140.353 370.277,154.748 369.539 C 164.128 369.058,164.801 368.909,169.592 366.239 C 184.519 357.919,198.262 359.446,211.104 370.851 C 216.555 375.692,219.390 376.726,227.878 376.967 C 236.453 377.210,240.235 378.906,244.403 384.375 L 247.082 387.891 232.631 388.103 C 216.338 388.342,215.469 388.648,215.469 394.141 C 215.469 399.912,215.796 400.000,237.266 400.000 L 256.321 400.000 258.340 397.981 C 262.909 393.412,258.665 379.573,250.369 371.991 C 244.861 366.957,239.136 364.735,230.859 364.420 C 227.422 364.289,224.199 364.155,223.697 364.122 C 223.195 364.089,220.909 362.452,218.618 360.484 C 211.705 354.543,200.845 349.219,195.642 349.219 L 193.699 349.219 193.920 294.727 L 194.141 240.234 195.916 235.844 C 198.299 229.954,203.191 223.274,207.573 219.928 L 211.162 217.188 230.776 217.182 C 264.293 217.173,279.527 210.676,294.245 190.114 C 304.375 175.961,309.365 149.870,303.133 143.638 L 300.797 141.302 277.547 141.597 C 251.258 141.930,249.724 142.178,237.891 148.000 C 216.820 158.368,202.344 180.943,202.344 203.435 C 202.344 207.409,202.233 207.610,198.047 211.224 L 193.750 214.934 193.765 193.600 C 193.796 151.395,202.001 129.418,225.240 109.293 L 230.558 104.688 256.490 104.683 C 290.991 104.677,300.872 103.109,316.797 95.114 C 347.872 79.514,366.406 49.318,366.406 14.291 C 366.406 4.585,366.402 4.563,364.123 2.284 L 361.839 0.000 331.505 0.071 C 310.287 0.120,299.490 0.446,295.574 1.157 M292.957 157.227 C 292.867 183.142,267.763 205.180,239.089 204.517 L 229.580 204.297 244.650 193.750 C 263.809 180.341,264.546 179.501,261.735 174.250 C 258.865 168.887,256.419 169.883,234.375 185.388 C 214.765 199.181,214.599 199.240,216.806 191.649 C 222.063 173.565,236.658 159.457,254.622 155.096 C 257.555 154.383,264.551 154.015,275.977 153.971 L 292.969 153.906 292.957 157.227 M136.636 229.909 C 146.606 234.109,155.038 242.629,158.572 252.076 C 160.801 258.032,161.269 258.201,146.294 247.662 C 131.663 237.365,129.698 236.638,126.136 240.199 C 124.270 242.065,123.729 244.690,124.694 247.204 C 124.955 247.884,130.093 251.868,136.111 256.056 L 147.053 263.672 142.646 263.907 C 124.905 264.852,106.800 249.778,104.038 231.763 L 103.339 227.198 117.490 227.501 C 130.737 227.785,131.960 227.939,136.636 229.909 " stroke="none" fill="#000000" fill-rule="evenodd"></path></g></svg>