<svg id="svg" version="1.1" xmlns="http://www.w3.org/2000/svg" xmlns:xlink="http://www.w3.org/1999/xlink" width="400" height="400" viewBox="0, 0, 400,400"><g id="svgg"><path id="path0" d="M117.946 2.148 C 114.390 6.644,121.052 34.456,130.062 52.734 C 142.351 77.666,163.821 91.354,182.838 86.383 C 187.753 85.098,187.688 85.060,189.324 90.234 C 192.619 100.658,193.588 112.940,193.164 138.931 L 192.969 150.908 185.039 146.647 L 177.110 142.385 177.032 134.652 C 176.805 112.364,153.931 94.897,119.341 90.598 C 109.606 89.388,79.450 89.931,76.453 91.370 C 69.998 94.469,73.643 105.029,88.166 125.299 C 113.317 160.405,148.565 174.423,167.399 156.811 L 170.345 154.056 182.048 160.396 L 193.750 166.736 193.750 176.959 L 193.750 187.182 187.558 188.084 C 167.507 191.007,148.425 202.889,137.052 219.535 L 133.381 224.908 123.437 224.947 C 93.272 225.065,69.892 239.843,60.449 264.759 C 58.856 268.961,58.616 269.196,54.589 270.500 C 46.700 273.054,44.242 275.988,46.035 280.706 C 47.686 285.047,50.134 285.680,57.714 283.727 C 72.604 279.890,83.391 285.747,87.018 299.637 C 89.750 310.100,100.545 308.823,99.863 298.118 C 99.131 286.617,88.233 273.892,76.020 270.279 L 72.742 269.310 74.573 265.710 C 82.923 249.287,97.150 240.538,119.367 238.161 C 128.900 237.142,128.282 236.777,126.869 242.585 C 123.747 255.417,124.580 267.125,128.718 268.567 C 134.500 270.583,138.144 266.574,138.237 258.094 C 138.675 218.243,179.073 191.474,220.610 203.511 C 230.479 206.370,235.172 204.435,234.119 197.941 C 233.321 193.027,227.258 190.224,212.947 188.155 L 206.250 187.187 206.280 160.976 L 206.310 134.766 220.928 123.316 C 235.195 112.142,235.584 111.900,237.109 113.259 C 256.013 130.099,289.930 118.847,310.189 89.014 C 319.685 75.031,333.594 40.989,333.594 31.731 C 333.594 24.796,324.696 23.834,297.266 27.802 C 247.560 34.993,214.347 66.047,225.062 95.313 C 225.927 97.676,226.707 100.010,226.794 100.500 C 226.922 101.219,207.749 117.188,206.757 117.188 C 206.602 117.188,206.280 113.584,206.043 109.180 C 205.564 100.305,203.977 91.841,201.061 82.609 L 199.131 76.500 202.195 71.913 C 216.251 50.863,201.459 22.540,169.795 9.871 C 149.390 1.707,121.571 -2.436,117.946 2.148 M141.906 15.643 C 170.412 21.489,188.391 33.140,193.378 48.997 C 195.332 55.210,193.584 64.429,191.170 60.639 C 181.133 44.878,167.861 31.250,162.547 31.250 C 154.107 31.250,153.755 38.398,161.822 45.953 C 171.361 54.887,183.249 71.403,181.116 72.756 C 167.008 81.707,144.419 59.880,134.928 28.125 C 130.133 12.082,129.558 13.110,141.906 15.643 M317.969 39.378 C 317.969 43.879,305.194 72.107,298.825 81.678 C 286.058 100.866,262.978 112.605,250.835 106.086 C 245.817 103.392,245.136 104.169,268.501 85.938 C 295.241 65.074,293.750 66.455,293.750 62.537 C 293.750 58.359,291.677 56.250,287.569 56.250 C 284.767 56.250,282.617 57.741,261.640 74.227 C 236.220 94.207,237.104 93.835,237.120 84.529 C 237.142 71.300,251.775 55.618,271.201 48.005 C 282.561 43.553,317.969 37.021,317.969 39.378 M121.290 104.283 C 139.839 107.078,157.440 117.144,162.461 127.827 C 166.322 136.041,165.381 135.955,148.047 126.512 C 128.408 115.813,123.438 115.320,123.438 124.069 C 123.438 128.403,123.881 128.755,141.406 138.304 C 150.215 143.104,157.544 147.147,157.693 147.289 C 157.842 147.431,156.538 148.275,154.794 149.164 C 143.696 154.826,122.796 145.623,107.750 128.450 C 103.166 123.218,90.625 105.165,90.625 103.799 C 90.625 102.691,113.083 103.045,121.290 104.283 M364.063 152.009 C 360.460 153.680,354.207 159.550,325.376 188.324 L 290.987 222.645 278.111 209.680 C 263.994 195.467,261.657 193.862,257.617 195.608 C 254.387 197.004,193.364 258.202,192.243 261.170 C 191.235 263.836,192.779 268.175,195.195 269.468 C 199.619 271.836,199.509 271.925,230.642 240.833 L 260.159 211.353 270.686 221.858 L 281.213 232.363 274.200 239.514 C 266.328 247.541,265.081 251.102,268.897 254.657 C 273.715 259.145,274.588 258.548,299.390 233.800 L 321.888 211.351 330.276 219.739 L 338.664 228.127 300.777 266.094 C 279.303 287.614,261.802 304.536,260.377 305.156 C 249.774 309.771,240.425 299.121,245.335 288.021 C 248.929 279.898,240.960 273.475,235.087 279.761 C 221.963 293.811,235.073 319.141,255.469 319.141 C 266.944 319.141,266.860 319.199,294.160 292.074 L 317.617 268.767 328.145 279.325 L 338.672 289.882 308.984 319.401 C 276.274 351.926,274.936 352.970,262.109 355.985 C 253.999 357.892,251.065 361.879,253.890 367.157 C 256.717 372.440,273.696 368.460,287.245 359.337 C 292.652 355.697,353.062 295.460,354.392 292.383 C 356.138 288.343,354.533 286.006,340.323 271.893 L 327.362 259.021 362.017 224.237 C 401.848 184.258,400.432 186.159,399.842 173.438 C 399.007 155.442,380.523 144.372,364.063 152.009 M381.062 164.840 C 386.166 167.952,388.299 175.226,385.599 180.312 C 384.983 181.473,376.369 190.505,366.457 200.385 L 348.436 218.348 340.044 209.956 L 331.652 201.564 349.224 183.905 C 371.277 161.744,373.652 160.322,381.062 164.840 M251.563 264.063 C 250.521 265.104,250.000 266.667,250.000 268.750 C 250.000 270.833,250.521 272.396,251.563 273.438 C 252.604 274.479,254.167 275.000,256.250 275.000 C 258.333 275.000,259.896 274.479,260.938 273.438 C 261.979 272.396,262.500 270.833,262.500 268.750 C 262.500 266.667,261.979 265.104,260.938 264.063 C 259.896 263.021,258.333 262.500,256.250 262.500 C 254.167 262.500,252.604 263.021,251.563 264.063 M176.172 282.343 C 168.554 284.752,161.847 289.493,157.509 295.535 L 154.264 300.054 146.468 300.222 C 136.751 300.432,131.799 302.549,125.883 309.022 C 108.991 327.505,122.969 357.624,147.852 356.359 C 156.074 355.941,154.758 344.539,146.345 343.314 C 137.208 341.984,132.031 336.491,132.031 328.125 C 132.031 317.205,143.657 309.557,152.951 314.363 C 158.816 317.396,161.675 315.965,165.652 308.006 C 177.744 283.808,211.719 292.976,211.719 320.437 C 211.719 328.922,212.570 330.742,216.972 331.665 C 235.606 335.568,234.967 359.319,216.155 362.063 C 211.472 362.746,209.375 364.710,209.375 368.411 C 209.375 382.712,236.011 373.751,242.132 357.390 C 247.191 343.869,240.023 325.431,228.020 321.091 L 225.186 320.066 224.833 313.963 C 223.570 292.148,197.904 275.470,176.172 282.343 M20.313 289.063 C 16.298 293.077,19.266 300.000,25.000 300.000 C 29.167 300.000,31.250 297.917,31.250 293.750 C 31.250 289.583,29.167 287.500,25.000 287.500 C 22.917 287.500,21.354 288.021,20.313 289.063 M372.500 292.224 C 369.139 295.584,369.768 298.660,375.011 304.511 C 399.130 331.423,385.394 375.336,349.609 385.722 C 343.944 387.366,73.074 388.328,58.375 386.756 C 34.129 384.163,16.401 366.726,13.268 342.392 C 12.592 337.133,12.797 333.942,14.525 322.899 C 16.424 310.760,3.963 309.839,1.216 321.915 C -6.487 355.784,14.176 390.181,47.195 398.452 C 56.883 400.879,343.117 400.879,352.805 398.452 C 396.559 387.492,415.038 333.016,387.073 297.426 C 380.955 289.639,376.629 288.095,372.500 292.224 " stroke="none" fill="#000000" fill-rule="evenodd"></path></g></svg>