<svg id="svg" version="1.1" xmlns="http://www.w3.org/2000/svg" xmlns:xlink="http://www.w3.org/1999/xlink" width="400" height="400" viewBox="0, 0, 400,400"><g id="svgg"><path id="path0" d="M310.515 5.634 C 308.093 7.539,295.642 32.407,293.387 39.844 C 289.970 51.112,291.279 65.768,296.679 76.697 L 299.640 82.692 291.964 98.572 C 284.127 114.784,283.515 116.959,285.251 122.416 C 285.960 124.646,248.131 201.413,246.094 201.878 C 242.909 202.606,241.418 204.252,238.004 210.803 L 234.766 217.017 220.313 210.072 C 203.621 202.052,200.339 201.401,196.123 205.273 C 193.764 207.441,167.841 260.010,165.015 268.359 C 164.287 270.508,163.664 272.348,163.630 272.448 C 163.595 272.549,161.305 270.528,158.541 267.957 C 145.255 255.602,123.853 251.088,105.273 256.722 C 104.006 257.106,103.906 256.083,103.906 242.631 C 103.906 234.653,104.037 228.125,104.196 228.125 C 142.758 228.125,157.815 214.218,157.811 178.604 C 157.809 156.877,156.821 155.980,135.205 158.070 C 119.636 159.575,112.902 161.247,107.948 164.835 C 106.162 166.129,104.522 167.188,104.304 167.188 C 104.085 167.188,103.906 156.260,103.906 142.905 L 103.906 118.622 113.202 108.291 C 128.306 91.505,130.971 85.781,130.281 71.604 C 129.652 58.666,127.623 54.872,112.583 38.500 C 97.886 22.501,96.613 22.527,81.435 39.151 C 57.497 65.368,57.357 81.344,80.832 107.583 L 91.456 119.457 91.236 128.446 L 91.016 137.434 87.619 135.151 C 81.522 131.053,76.433 129.704,60.844 128.055 C 37.458 125.581,37.342 125.698,37.669 151.563 L 37.891 169.141 40.379 174.393 C 47.387 189.187,57.510 194.858,80.664 196.961 L 91.406 197.936 91.383 230.023 L 91.360 262.109 86.500 264.844 C 79.920 268.546,68.276 280.250,65.029 286.425 L 62.513 291.209 53.718 291.559 C 36.709 292.236,27.589 299.348,23.402 315.200 L 21.638 321.875 17.655 321.879 C 11.883 321.886,8.115 323.168,4.638 326.310 C 0.031 330.472,-0.123 331.662,0.148 361.061 L 0.391 387.357 2.754 390.276 C 7.969 396.716,-13.143 396.094,200.000 396.094 C 413.143 396.094,392.031 396.716,397.246 390.276 L 399.609 387.357 399.852 361.061 C 400.229 320.136,402.080 321.886,358.435 321.879 C 325.746 321.874,323.537 322.416,325.435 329.976 C 326.531 334.345,326.748 334.375,357.578 334.375 L 385.901 334.375 387.127 336.245 C 389.178 339.375,388.500 381.714,386.374 383.267 C 384.091 384.935,15.909 384.935,13.626 383.267 C 12.197 382.223,12.096 380.890,11.879 360.137 C 11.595 333.007,11.121 334.375,20.799 334.375 C 29.641 334.375,31.665 332.621,34.320 322.656 C 38.567 306.717,42.641 303.760,60.233 303.850 C 71.372 303.907,71.671 303.770,73.830 297.651 C 81.475 275.984,114.137 261.173,136.711 269.138 C 145.923 272.388,154.435 280.715,167.123 298.889 C 183.945 322.983,191.788 330.113,204.858 333.195 C 212.168 334.918,305.874 334.942,308.331 333.221 C 311.814 330.782,311.217 324.528,307.332 322.758 C 306.253 322.266,301.434 321.875,296.448 321.875 C 291.526 321.875,287.500 321.700,287.500 321.487 C 287.500 321.273,293.695 308.240,301.267 292.524 C 319.286 255.125,319.616 258.053,296.094 246.683 C 288.145 242.840,281.543 239.603,281.424 239.488 C 281.304 239.374,282.447 236.692,283.963 233.529 C 286.704 227.809,287.494 222.747,286.011 220.405 C 285.546 219.671,287.428 214.945,291.882 205.659 C 300.036 188.660,300.300 183.594,293.033 183.594 C 288.907 183.594,288.202 184.472,281.496 197.962 C 277.842 205.314,274.446 211.238,273.950 211.127 C 271.889 210.669,260.938 205.106,260.938 204.517 C 260.938 203.425,296.278 130.466,296.786 130.509 C 297.050 130.531,300.328 132.025,304.070 133.829 L 310.874 137.109 305.046 149.137 C 297.957 163.769,297.682 167.607,303.618 169.096 C 308.196 170.246,309.566 168.722,316.326 154.957 C 319.808 147.868,322.656 141.743,322.656 141.346 C 322.656 140.950,323.332 140.625,324.159 140.625 C 327.761 140.625,330.677 136.526,338.404 120.601 L 346.035 104.874 349.728 104.320 C 360.236 102.744,371.408 96.627,379.253 88.155 C 385.974 80.896,398.451 56.280,399.034 49.132 C 399.600 42.178,399.865 42.351,357.352 21.942 C 316.302 2.236,315.285 1.882,310.515 5.634 M351.428 33.246 C 369.764 42.079,385.019 49.557,385.328 49.864 C 385.942 50.472,381.346 60.938,380.465 60.938 C 380.018 60.938,313.385 29.052,312.657 28.490 C 312.336 28.242,317.311 17.188,317.744 17.188 C 317.935 17.188,333.093 24.414,351.428 33.246 M329.806 50.883 C 342.417 56.955,357.768 64.331,363.920 67.274 L 375.106 72.626 373.686 75.065 C 368.746 83.548,353.990 92.188,344.440 92.188 C 338.191 92.187,338.033 92.380,329.090 110.857 L 320.816 127.951 310.138 122.674 C 304.265 119.772,298.992 117.242,298.421 117.052 C 297.683 116.806,299.680 111.938,305.332 100.208 C 314.385 81.419,314.381 81.441,310.132 74.868 C 304.505 66.161,302.548 53.284,305.375 43.555 C 306.681 39.058,302.875 37.916,329.806 50.883 M109.085 53.694 C 121.172 67.275,121.231 79.841,109.272 93.625 L 104.297 99.359 103.906 84.766 L 103.516 70.174 101.324 68.290 C 98.639 65.983,96.172 65.896,93.481 68.013 L 91.439 69.619 91.227 84.797 L 91.016 99.975 86.061 94.323 C 72.174 78.484,73.003 67.456,89.453 49.211 L 97.266 40.546 100.391 43.991 C 102.109 45.885,106.022 50.252,109.085 53.694 M64.063 140.939 C 82.833 143.084,90.551 150.760,91.214 167.942 L 91.532 176.172 86.215 170.313 C 76.054 159.114,75.439 158.594,72.358 158.594 C 63.642 158.594,64.192 165.098,73.811 175.747 C 82.418 185.277,82.410 184.731,73.931 183.694 C 56.445 181.555,50.000 172.969,50.000 151.814 L 50.000 139.844 52.539 139.878 C 53.936 139.897,59.121 140.374,64.063 140.939 M145.177 182.227 C 144.814 199.302,141.406 206.269,130.970 211.266 C 127.710 212.828,114.312 215.354,113.516 214.558 C 113.424 214.465,116.654 210.713,120.695 206.218 C 128.538 197.496,129.827 194.880,127.803 191.793 C 124.042 186.052,120.605 187.211,111.573 197.266 L 104.297 205.368 104.070 198.193 C 103.452 178.675,113.185 171.714,144.013 169.628 C 145.360 169.537,145.431 170.304,145.177 182.227 M265.820 221.550 C 270.010 223.641,273.438 225.583,273.438 225.865 C 273.438 226.920,252.262 270.014,250.697 272.143 C 245.648 279.012,234.903 278.524,230.060 271.206 C 226.118 265.249,226.498 263.836,239.107 237.597 L 250.335 214.231 254.269 215.989 C 256.433 216.956,261.631 219.458,265.820 221.550 M216.418 222.322 C 223.062 225.576,228.642 228.381,228.817 228.556 C 228.992 228.732,226.031 235.430,222.237 243.441 C 215.341 258.004,215.340 258.008,215.379 264.168 C 215.474 278.926,226.147 289.428,241.016 289.395 C 254.078 289.366,259.423 284.621,269.101 264.468 L 275.647 250.836 288.203 256.863 C 295.108 260.178,300.764 263.199,300.770 263.576 C 300.786 264.520,275.880 316.181,273.879 319.356 L 272.266 321.915 239.844 321.700 L 207.422 321.484 202.876 319.252 C 196.943 316.339,190.060 309.233,181.201 296.875 L 174.200 287.109 174.698 282.422 C 174.972 279.844,175.623 276.328,176.146 274.609 C 177.232 271.039,203.300 216.434,203.927 216.417 C 204.153 216.411,209.774 219.068,216.418 222.322 M76.471 319.448 C 73.889 321.539,73.889 326.899,76.471 328.990 C 80.640 332.365,86.719 329.535,86.719 324.219 C 86.719 318.902,80.640 316.072,76.471 319.448 M114.418 330.043 C 110.542 333.918,113.288 340.625,118.750 340.625 C 121.962 340.625,125.000 337.587,125.000 334.375 C 125.000 331.163,121.962 328.125,118.750 328.125 C 117.228 328.125,115.626 328.834,114.418 330.043 M49.355 349.464 C 45.370 353.706,48.868 360.798,54.495 359.885 C 58.333 359.262,59.730 357.641,59.730 353.813 C 59.730 348.152,53.171 345.403,49.355 349.464 M163.417 349.464 C 160.263 352.822,161.793 358.636,166.118 359.721 C 172.271 361.266,176.709 353.982,172.301 349.574 C 169.764 347.037,165.745 346.987,163.417 349.464 M128.480 357.386 C 124.605 361.262,127.351 367.969,132.813 367.969 C 136.024 367.969,139.063 364.931,139.063 361.719 C 139.063 358.507,136.024 355.469,132.813 355.469 C 131.290 355.469,129.689 356.178,128.480 357.386 M214.980 357.277 C 211.661 360.810,214.137 367.969,218.678 367.969 C 224.670 367.969,227.885 361.408,223.864 357.386 C 221.326 354.849,217.307 354.800,214.980 357.277 M273.494 357.527 C 271.268 360.357,271.419 363.678,273.886 366.144 C 277.650 369.908,284.375 366.993,284.375 361.597 C 284.375 356.113,276.827 353.290,273.494 357.527 M324.930 356.931 C 320.762 360.306,323.695 367.500,329.241 367.500 C 333.010 367.500,335.156 365.359,335.156 361.598 C 335.156 356.095,329.277 353.411,324.930 356.931 " stroke="none" fill="#000000" fill-rule="evenodd"></path></g></svg>