<svg id="svg" version="1.1" xmlns="http://www.w3.org/2000/svg" xmlns:xlink="http://www.w3.org/1999/xlink" width="400" height="400" viewBox="0, 0, 400,400"><g id="svgg"><path id="path0" d="M55.469 30.355 C 40.113 41.753,30.469 60.377,30.469 78.633 C 30.469 81.997,30.429 82.050,28.320 81.460 C 25.441 80.655,8.791 80.905,5.912 81.796 C -2.578 84.426,-2.042 110.604,6.811 125.762 C 15.543 140.713,31.644 150.391,49.413 151.370 L 57.031 151.790 57.031 156.364 L 57.031 160.938 43.914 160.938 C 12.766 160.938,0.674 171.638,0.133 199.682 L -0.125 213.036 2.231 215.392 C 5.165 218.326,7.505 218.730,21.625 218.741 L 32.703 218.750 32.012 221.161 C 31.632 222.487,31.088 226.442,30.803 229.950 L 30.286 236.328 18.854 236.328 C 1.390 236.328,0.678 236.924,0.176 251.953 C -0.837 282.268,20.892 305.823,50.487 306.493 L 57.023 306.641 57.027 311.523 L 57.031 316.406 43.051 316.406 C 12.322 316.406,0.689 326.837,0.129 354.895 L -0.132 367.993 2.590 370.715 L 5.312 373.438 21.832 373.438 C 39.794 373.438,42.188 372.803,42.187 368.041 C 42.187 362.039,39.443 360.937,24.486 360.938 L 12.327 360.938 12.615 352.539 C 13.023 340.630,17.768 333.329,27.183 330.121 C 32.615 328.270,367.385 328.270,372.817 330.121 C 382.232 333.329,386.977 340.630,387.385 352.539 L 387.673 360.937 224.270 360.937 L 60.866 360.937 58.949 362.855 C 56.412 365.392,56.362 369.411,58.839 371.739 L 60.648 373.437 227.668 373.437 L 394.688 373.438 397.410 370.715 L 400.132 367.993 399.871 354.895 C 399.312 326.876,387.636 316.406,356.949 316.406 L 342.969 316.406 342.973 311.523 L 342.977 306.641 349.513 306.493 C 379.129 305.823,400.838 282.290,399.824 251.953 C 399.322 236.924,398.610 236.328,381.146 236.328 L 369.714 236.328 369.197 229.950 C 368.912 226.442,368.368 222.487,367.988 221.161 L 367.297 218.750 378.375 218.741 C 392.423 218.730,394.842 218.319,397.707 215.455 L 400.000 213.161 400.000 201.263 C 400.000 172.675,388.560 161.735,358.008 161.104 L 342.969 160.794 342.969 156.292 L 342.969 151.790 350.587 151.370 C 372.580 150.158,391.357 135.810,397.877 115.234 C 400.192 107.927,400.447 88.315,398.270 84.995 C 395.908 81.393,379.669 79.236,371.680 81.462 C 369.555 82.054,369.531 82.020,369.504 78.335 C 369.327 54.135,345.751 20.959,333.347 27.456 C 317.962 35.516,304.687 58.142,304.688 76.306 L 304.688 82.050 301.367 81.455 C 296.258 80.539,282.768 80.845,279.479 81.952 C 275.225 83.383,274.091 86.129,273.650 96.056 C 272.296 126.537,295.647 151.563,325.442 151.563 L 330.469 151.563 330.469 156.250 L 330.469 160.938 311.293 160.938 L 292.116 160.938 290.199 162.855 C 287.511 165.543,287.575 169.644,290.340 171.818 C 292.358 173.406,293.142 173.438,330.042 173.438 C 371.858 173.438,372.585 173.512,379.108 178.493 C 384.983 182.979,387.500 188.999,387.500 198.562 L 387.500 206.250 375.166 206.250 L 362.831 206.250 359.614 201.367 C 354.637 193.813,344.906 184.650,339.433 182.363 C 334.154 180.157,322.283 188.983,314.844 200.647 L 311.328 206.158 268.615 206.204 L 225.901 206.250 222.303 200.837 C 218.025 194.402,208.414 185.184,203.506 182.808 L 200.000 181.111 196.340 182.883 C 191.420 185.264,182.033 194.316,177.658 200.896 L 174.099 206.250 131.385 206.204 L 88.672 206.158 85.156 200.647 C 77.717 188.983,65.846 180.157,60.567 182.363 C 55.094 184.650,45.363 193.813,40.386 201.367 L 37.169 206.250 24.834 206.250 L 12.500 206.250 12.500 198.562 C 12.500 188.999,15.017 182.979,20.892 178.493 C 27.930 173.119,19.739 173.437,150.959 173.438 L 269.602 173.438 271.613 171.427 C 273.288 169.752,273.547 168.937,273.164 166.544 C 272.243 160.791,273.164 160.937,237.804 160.937 L 206.250 160.938 206.250 156.250 L 206.250 151.563 211.523 151.549 C 239.724 151.476,261.919 129.761,263.011 101.172 C 263.700 83.160,261.849 80.941,246.094 80.889 C 241.152 80.873,236.179 81.121,235.042 81.440 L 232.974 82.020 232.412 75.581 C 230.497 53.631,212.599 26.563,200.000 26.563 C 187.401 26.562,169.503 53.631,167.588 75.581 L 167.026 82.020 164.958 81.440 C 163.821 81.121,158.848 80.873,153.906 80.889 C 138.175 80.941,136.352 83.122,136.952 101.172 C 137.896 129.536,160.336 151.477,188.477 151.549 L 193.750 151.563 193.750 156.250 L 193.750 160.938 131.641 160.938 L 69.531 160.938 69.531 156.250 L 69.531 151.563 74.558 151.563 C 104.353 151.563,127.704 126.537,126.350 96.056 C 125.909 86.129,124.775 83.383,120.521 81.952 C 117.232 80.845,103.742 80.539,98.633 81.455 L 95.313 82.050 95.313 76.146 C 95.313 69.258,93.483 66.406,89.063 66.406 C 84.174 66.406,82.813 69.055,82.813 78.563 C 82.813 91.234,79.151 102.076,72.226 109.914 L 69.596 112.891 69.564 95.082 L 69.531 77.273 67.614 75.355 C 65.076 72.818,61.057 72.768,58.730 75.246 C 57.086 76.996,57.031 77.641,57.031 95.333 L 57.031 113.613 54.752 110.908 C 38.591 91.734,39.556 63.736,56.991 45.917 C 63.371 39.397,62.650 39.344,70.171 46.875 C 76.970 53.684,78.706 54.346,82.317 51.506 C 87.078 47.760,83.392 40.116,72.849 31.873 C 64.283 25.175,62.641 25.032,55.469 30.355 M204.157 43.790 C 223.046 60.417,225.075 91.774,208.491 110.769 L 206.250 113.336 206.250 95.304 L 206.250 77.273 204.332 75.355 C 203.124 74.146,201.522 73.438,200.000 73.438 C 198.478 73.438,196.876 74.146,195.668 75.355 L 193.750 77.273 193.750 95.007 C 193.750 115.165,193.912 114.880,187.731 105.568 C 175.609 87.305,178.212 61.803,193.819 45.914 C 199.939 39.685,199.577 39.759,204.157 43.790 M343.105 46.071 C 360.486 64.155,361.413 91.623,345.293 110.938 L 343.011 113.672 342.990 95.363 C 342.969 77.654,342.913 76.995,341.270 75.246 C 338.943 72.768,334.924 72.818,332.386 75.355 L 330.469 77.273 330.436 95.082 L 330.404 112.891 327.805 109.950 C 311.991 92.056,313.799 62.308,331.765 44.767 C 337.084 39.574,336.834 39.546,343.105 46.071 M28.807 94.594 C 31.206 95.313,32.431 96.196,32.987 97.610 C 37.997 110.339,45.326 121.082,52.984 126.922 L 57.031 130.009 57.031 134.536 L 57.031 139.063 52.539 139.051 C 35.181 139.006,20.053 128.124,14.282 111.529 C 12.341 105.947,11.527 95.956,12.841 93.830 C 13.645 92.530,23.492 93.001,28.807 94.594 M113.929 98.047 C 115.109 119.507,95.970 139.063,73.790 139.063 L 69.531 139.063 69.531 134.705 L 69.531 130.347 75.803 124.446 C 83.149 117.536,88.910 109.157,91.841 101.121 L 93.933 95.384 98.334 94.480 C 100.754 93.984,103.086 93.460,103.516 93.318 C 103.945 93.175,106.406 93.126,108.984 93.209 L 113.672 93.359 113.929 98.047 M162.161 93.810 C 167.380 94.757,170.313 96.316,170.313 98.145 C 170.313 103.499,181.450 120.056,189.428 126.563 L 193.739 130.078 193.745 134.570 L 193.750 139.063 189.492 139.063 C 167.598 139.063,149.219 121.052,149.219 99.598 C 149.219 92.255,150.481 91.690,162.161 93.810 M250.625 98.320 C 251.655 120.086,232.970 139.063,210.508 139.063 L 206.250 139.063 206.264 134.570 C 206.278 130.114,206.310 130.051,210.366 126.672 C 218.588 119.821,225.660 109.867,228.870 100.629 C 230.852 94.923,235.331 92.955,245.703 93.233 L 250.391 93.359 250.625 98.320 M302.461 94.530 C 306.061 95.450,306.113 95.510,308.173 101.159 C 311.091 109.159,316.862 117.547,324.197 124.446 L 330.469 130.347 330.469 134.705 L 330.469 139.063 325.945 139.063 C 308.233 139.063,291.761 126.109,287.072 108.491 C 285.889 104.045,285.539 94.424,286.523 93.402 C 287.294 92.603,297.841 93.349,302.461 94.530 M387.343 98.755 C 388.281 120.393,369.871 138.993,347.461 139.051 L 342.969 139.063 342.969 134.520 C 342.969 130.025,343.006 129.950,346.588 127.294 C 354.085 121.734,363.337 108.500,366.387 98.975 C 367.696 94.886,373.018 92.981,382.422 93.233 L 387.109 93.359 387.343 98.755 M70.988 202.841 C 85.899 219.571,86.995 244.540,73.637 263.177 L 69.922 268.359 69.531 250.215 C 69.109 230.620,68.795 229.299,64.453 228.878 C 57.276 228.181,57.031 228.880,57.031 250.096 C 57.031 270.675,57.220 270.335,51.067 260.846 C 38.273 241.116,41.222 216.357,58.359 199.625 L 62.723 195.365 64.914 196.925 C 66.119 197.783,68.852 200.445,70.988 202.841 M349.018 208.559 C 359.204 223.839,359.191 245.664,348.988 261.036 C 342.796 270.365,342.969 270.679,342.969 250.121 C 342.969 228.877,342.726 228.181,335.547 228.878 C 331.205 229.299,330.891 230.620,330.469 250.215 L 330.078 268.359 326.363 263.177 C 312.281 243.529,314.124 218.335,330.918 200.932 L 336.694 194.946 341.435 199.621 C 344.043 202.193,347.456 206.215,349.018 208.559 M206.482 201.509 C 223.245 219.279,224.381 247.640,209.034 265.234 L 206.309 268.359 206.254 250.391 C 206.196 231.094,206.076 230.474,202.085 228.956 C 199.668 228.038,196.404 228.994,194.815 231.085 C 194.054 232.087,193.786 236.925,193.746 250.391 L 193.691 268.359 190.958 265.234 C 179.226 251.823,176.830 230.300,185.191 213.423 C 188.645 206.451,197.495 196.094,200.000 196.094 C 200.755 196.094,203.672 198.531,206.482 201.509 M169.209 220.024 C 168.940 220.725,168.336 224.681,167.866 228.814 L 167.012 236.328 155.186 236.328 C 138.335 236.328,137.405 237.082,136.866 251.185 C 135.694 281.794,157.565 305.822,187.206 306.493 L 193.742 306.641 193.746 311.523 L 193.750 316.406 131.641 316.406 L 69.531 316.406 69.535 311.523 L 69.538 306.641 75.385 306.503 C 105.627 305.789,128.038 281.247,126.354 250.688 C 125.879 242.058,124.804 239.164,121.477 237.557 C 118.603 236.169,103.297 235.487,98.732 236.544 L 95.511 237.289 95.077 229.777 C 94.838 225.646,94.401 221.475,94.105 220.508 L 93.568 218.750 131.633 218.750 C 166.510 218.750,169.657 218.857,169.209 220.024 M305.895 220.508 C 305.599 221.475,305.162 225.646,304.923 229.777 L 304.489 237.289 301.268 236.544 C 296.703 235.487,281.397 236.169,278.523 237.557 C 275.153 239.185,274.093 242.130,273.633 251.145 C 272.091 281.353,294.394 305.711,324.299 306.482 L 330.461 306.641 330.465 311.523 L 330.469 316.406 268.359 316.406 L 206.250 316.406 206.250 311.313 C 206.250 306.422,206.320 306.238,208.008 306.659 C 208.975 306.900,212.826 306.749,216.567 306.322 C 245.038 303.077,264.250 280.329,263.134 251.185 C 262.595 237.082,261.665 236.328,244.814 236.328 L 232.988 236.328 232.134 228.814 C 231.664 224.681,231.060 220.725,230.791 220.024 C 230.343 218.857,233.490 218.750,268.367 218.750 L 306.432 218.750 305.895 220.508 M29.688 249.911 C 32.157 250.686,32.632 251.330,34.586 256.558 C 37.658 264.777,43.252 272.880,50.647 279.822 C 64.621 292.941,54.936 299.523,35.316 290.240 C 20.626 283.289,9.986 265.189,12.280 251.052 L 12.733 248.261 19.843 248.658 C 23.754 248.875,28.184 249.440,29.688 249.911 M114.063 253.742 C 114.063 274.757,98.787 291.459,77.157 294.095 C 70.352 294.924,69.531 294.437,69.531 289.560 C 69.531 285.490,69.552 285.456,74.989 280.589 C 82.959 273.453,92.969 257.989,92.969 252.813 C 92.969 250.340,98.942 248.633,108.008 248.516 L 114.063 248.438 114.063 253.742 M166.500 249.926 C 169.093 250.726,169.503 251.277,171.431 256.563 C 174.387 264.669,180.202 273.110,187.501 279.891 C 195.990 287.777,196.776 294.567,189.194 294.518 C 167.649 294.377,149.219 275.716,149.219 254.040 L 149.219 248.251 156.445 248.652 C 160.420 248.873,164.945 249.446,166.500 249.926 M250.762 254.102 C 250.713 268.785,242.181 283.122,229.740 289.427 C 209.382 299.742,197.942 293.415,212.499 279.891 C 219.800 273.108,225.613 264.668,228.572 256.556 C 230.602 250.991,230.791 250.756,233.893 249.960 C 235.662 249.506,237.461 249.005,237.891 248.848 C 238.320 248.690,241.396 248.533,244.727 248.499 L 250.781 248.438 250.762 254.102 M304.102 250.239 C 305.766 250.946,307.031 252.028,307.031 252.746 C 307.031 257.985,316.990 273.407,325.011 280.589 C 330.448 285.456,330.469 285.490,330.469 289.560 C 330.469 294.437,329.648 294.924,322.843 294.095 C 301.164 291.453,285.938 274.761,285.938 253.638 L 285.938 248.229 293.555 248.612 C 297.926 248.832,302.420 249.525,304.102 250.239 M387.572 250.977 C 388.211 273.362,374.209 290.693,352.955 293.825 C 344.113 295.128,342.969 294.663,342.969 289.768 C 342.969 285.830,342.993 285.793,349.353 279.822 C 356.668 272.955,362.172 265.032,365.311 256.850 C 366.509 253.727,367.567 251.055,367.663 250.912 C 368.290 249.976,376.372 248.566,381.445 248.507 L 387.500 248.438 387.572 250.977 " stroke="none" fill="#000000" fill-rule="evenodd"></path></g></svg>