<svg id="svg" version="1.1" xmlns="http://www.w3.org/2000/svg" xmlns:xlink="http://www.w3.org/1999/xlink" width="400" height="400" viewBox="0, 0, 400,400"><g id="svgg"><path id="path0" d="M220.221 65.922 C 202.086 72.403,191.991 99.590,202.904 112.559 C 214.353 126.166,239.035 111.642,242.974 88.980 C 245.850 72.435,234.417 60.849,220.221 65.922 M230.170 80.177 C 232.361 85.422,228.726 95.612,222.737 101.011 C 215.481 107.554,210.920 106.482,210.955 98.242 C 211.007 85.770,226.443 71.258,230.170 80.177 M15.040 83.238 C 0.796 87.074,-3.024 94.110,1.246 108.647 C 8.232 132.428,38.065 148.454,59.814 140.108 C 60.774 139.739,60.937 142.810,60.938 161.245 L 60.938 182.813 32.031 182.813 C 4.167 182.813,3.069 182.869,1.562 184.375 C -0.896 186.834,-0.896 331.135,1.562 333.594 C 3.107 335.139,4.167 335.156,96.129 335.156 L 189.134 335.156 191.051 333.239 C 192.260 332.030,192.969 330.428,192.969 328.906 C 192.969 327.384,192.260 325.783,191.051 324.574 L 189.134 322.656 100.426 322.656 L 11.719 322.656 11.719 282.422 L 11.719 242.188 77.198 242.188 L 142.676 242.188 144.971 244.613 C 172.728 273.951,227.570 273.964,255.029 244.638 L 257.324 242.188 322.412 242.188 L 387.500 242.188 387.500 282.422 L 387.500 322.656 299.183 322.656 L 210.866 322.656 208.949 324.574 C 206.412 327.111,206.412 330.702,208.949 333.239 L 210.866 335.156 303.871 335.156 C 395.833 335.156,396.893 335.139,398.438 333.594 C 400.896 331.135,400.896 186.834,398.438 184.375 C 396.931 182.869,395.833 182.813,367.969 182.813 L 339.063 182.813 339.063 161.245 C 339.063 141.288,339.161 139.715,340.387 140.185 C 347.352 142.857,363.800 142.256,367.969 139.177 C 373.856 134.828,369.882 127.538,362.214 128.619 C 347.870 130.642,339.843 128.549,339.844 122.787 C 339.847 108.839,357.043 94.466,373.608 94.565 C 388.624 94.656,390.980 99.558,382.681 113.443 C 378.231 120.888,379.714 125.781,386.421 125.781 C 395.399 125.781,404.775 96.173,397.852 89.685 C 383.188 75.944,350.681 81.213,336.517 99.627 L 333.203 103.935 330.888 100.991 C 316.511 82.712,291.563 76.704,272.415 86.910 C 265.057 90.832,263.866 97.080,267.954 110.315 C 274.841 132.614,304.675 148.075,325.439 140.108 C 326.399 139.739,326.563 142.810,326.563 161.245 L 326.563 182.813 297.713 182.813 L 268.863 182.813 267.244 184.871 C 266.071 186.363,265.625 188.064,265.625 191.052 C 265.625 236.463,214.787 267.846,172.778 248.368 C 150.165 237.883,134.375 214.484,134.375 191.461 C 134.375 188.060,133.971 186.416,132.756 184.871 L 131.137 182.812 102.287 182.812 L 73.438 182.813 73.438 161.245 C 73.438 142.810,73.601 139.739,74.561 140.108 C 97.235 148.809,127.903 130.803,133.231 105.661 C 135.616 94.408,134.462 90.576,127.585 86.910 C 108.946 76.976,83.362 82.695,70.215 99.736 L 66.884 104.053 65.279 101.831 C 58.169 91.990,52.776 89.411,48.418 93.770 C 45.693 96.495,46.425 99.437,51.145 104.727 C 60.448 115.153,62.988 125.260,56.915 127.690 C 39.325 134.728,14.449 120.006,12.671 101.506 C 12.220 96.809,14.664 95.331,23.828 94.758 C 30.624 94.333,33.142 93.409,34.274 90.926 C 37.733 83.335,28.454 79.626,15.040 83.238 M118.606 96.466 C 121.963 97.861,121.975 97.880,121.472 101.082 C 118.497 120.029,96.736 133.696,78.506 128.065 L 73.254 126.443 73.598 122.295 C 75.151 103.565,100.573 88.976,118.606 96.466 M307.249 97.885 C 317.737 103.069,325.642 113.127,326.399 122.252 L 326.739 126.356 322.940 127.657 C 304.470 133.984,282.969 121.629,278.825 102.307 C 277.827 97.652,277.700 97.845,282.992 95.960 C 290.019 93.457,299.870 94.239,307.249 97.885 M164.176 118.756 C 143.640 127.519,155.516 167.061,179.776 170.699 C 200.723 173.840,205.511 143.044,186.798 125.540 C 180.087 119.263,170.045 116.252,164.176 118.756 M174.121 131.590 C 182.657 136.004,189.191 152.216,184.375 157.031 C 177.583 163.823,162.045 141.545,167.075 132.227 C 168.183 130.173,170.906 129.927,174.121 131.590 M122.675 200.977 C 123.940 208.586,126.953 217.997,130.180 224.414 L 132.832 229.688 72.275 229.688 L 11.719 229.688 11.719 212.500 L 11.719 195.313 66.726 195.313 L 121.734 195.313 122.675 200.977 M387.500 212.500 L 387.500 229.688 327.344 229.688 C 294.258 229.688,267.188 229.556,267.188 229.395 C 267.188 229.235,268.081 227.505,269.172 225.552 C 272.957 218.780,278.125 201.492,278.125 195.601 C 278.125 195.442,302.734 195.313,332.813 195.313 L 387.500 195.313 387.500 212.500 M187.391 200.246 C 177.036 203.776,171.400 210.869,172.030 219.579 C 173.916 245.662,227.734 244.552,227.734 218.430 C 227.734 202.990,206.896 193.597,187.391 200.246 M207.813 211.899 C 219.357 215.353,217.162 223.267,203.964 225.770 C 199.380 226.640,193.312 225.734,189.087 223.549 C 176.794 217.194,192.615 207.351,207.813 211.899 " stroke="none" fill="#000000" fill-rule="evenodd"></path></g></svg>