<svg id="svg" version="1.1" xmlns="http://www.w3.org/2000/svg" xmlns:xlink="http://www.w3.org/1999/xlink" width="400" height="400" viewBox="0, 0, 400,400"><g id="svgg"><path id="path0" d="M222.549 25.283 C 219.044 26.836,68.058 143.800,67.569 145.341 C 66.903 147.439,67.920 149.037,77.861 161.523 C 88.760 175.213,87.514 175.007,100.386 165.253 L 110.156 157.850 110.156 205.097 L 110.156 252.344 68.924 252.344 C 19.337 252.344,24.218 251.081,24.222 263.911 C 24.226 275.997,26.217 279.643,33.939 281.706 L 37.109 282.553 37.319 301.522 C 37.511 318.894,37.419 320.449,36.237 319.995 C 35.526 319.722,31.901 319.283,28.181 319.019 C 17.884 318.288,16.196 321.172,21.759 329.994 C 23.413 332.618,25.311 335.820,25.975 337.109 L 27.182 339.453 18.601 339.453 C 10.526 339.453,9.932 339.562,8.526 341.297 C 6.418 343.899,6.527 344.259,11.368 350.694 C 16.769 357.873,19.224 362.667,20.666 368.848 C 21.956 374.380,22.555 375.195,25.330 375.195 C 31.172 375.195,31.253 367.447,25.532 355.946 C 21.352 347.543,21.240 347.842,27.915 349.594 C 41.688 353.209,43.134 350.944,36.068 336.828 C 33.848 332.393,32.031 328.656,32.031 328.522 C 32.031 328.389,34.404 328.810,37.305 329.457 C 48.498 331.957,61.749 339.912,67.684 347.695 C 71.631 352.870,78.125 353.588,78.125 348.849 C 78.125 345.948,79.895 339.880,80.612 340.323 C 84.422 342.678,92.102 358.877,93.767 368.070 C 94.851 374.055,95.533 375.000,98.768 375.000 C 111.142 375.000,93.711 333.466,78.352 326.358 C 75.311 324.951,72.891 327.331,71.818 332.784 L 70.898 337.461 67.285 334.277 C 63.210 330.686,55.168 325.753,50.195 323.794 L 46.875 322.487 46.875 302.650 L 46.875 282.813 52.734 282.813 L 58.594 282.813 58.594 301.441 C 58.594 321.676,58.804 322.656,63.147 322.656 C 67.637 322.656,67.969 321.178,67.969 301.172 L 67.969 282.813 89.063 282.813 L 110.156 282.813 110.156 327.257 C 110.156 369.852,110.218 371.779,111.650 373.546 L 113.143 375.391 223.564 375.579 C 311.580 375.729,334.381 375.566,335.938 374.775 L 337.891 373.783 338.097 350.205 L 338.304 326.627 342.665 321.917 C 349.062 315.008,363.146 305.073,364.552 306.479 C 364.881 306.809,356.832 329.609,354.330 335.432 C 351.266 342.563,354.746 345.980,361.792 342.757 C 366.962 340.392,371.478 339.073,374.425 339.067 L 376.583 339.063 375.376 341.953 C 374.712 343.542,372.746 346.686,371.008 348.939 C 367.227 353.840,367.245 355.875,371.094 358.335 C 378.667 363.176,380.413 364.894,382.765 369.821 C 385.286 375.106,386.954 376.247,390.296 374.976 C 395.500 372.998,391.083 361.397,382.736 355.118 L 379.883 352.972 381.741 349.648 C 390.861 333.329,387.199 327.172,370.313 330.435 C 365.736 331.319,365.628 332.751,371.447 315.432 C 376.601 300.095,377.344 296.406,375.625 294.688 C 372.351 291.413,356.492 298.048,344.151 307.854 L 338.281 312.519 338.281 235.127 C 338.281 170.755,338.457 157.840,339.325 158.360 C 339.900 158.703,344.403 162.061,349.333 165.820 C 361.560 175.146,360.070 175.518,372.292 160.077 C 381.429 148.532,382.616 146.009,380.092 143.485 C 377.787 141.180,227.256 25.393,225.923 24.900 C 225.171 24.621,223.653 24.794,222.549 25.283 M297.420 91.099 C 336.866 121.482,369.440 146.602,369.805 146.921 C 370.804 147.793,359.295 161.840,358.266 161.006 C 340.685 146.762,225.945 60.938,224.483 60.938 C 223.171 60.938,216.294 65.675,203.263 75.558 C 192.660 83.599,162.802 106.259,136.912 125.913 L 89.839 161.648 84.370 154.853 C 81.363 151.116,78.991 147.791,79.100 147.464 C 79.528 146.182,223.886 35.279,224.763 35.559 C 225.278 35.723,257.973 60.716,297.420 91.099 M237.391 80.859 L 247.661 88.672 236.379 88.888 C 230.174 89.007,219.749 89.007,213.214 88.888 L 201.330 88.672 212.857 79.896 C 222.846 72.292,224.567 71.250,225.752 72.084 C 226.504 72.614,231.742 76.563,237.391 80.859 M294.589 124.297 L 329.688 150.938 329.688 163.750 L 329.688 176.563 312.266 176.563 C 293.265 176.563,292.969 176.630,292.969 180.988 C 292.969 184.900,294.189 185.156,312.839 185.156 L 329.688 185.156 329.688 204.688 L 329.688 224.219 307.813 224.219 L 285.938 224.219 285.938 201.328 C 285.938 184.566,285.687 178.187,285.000 177.500 C 284.283 176.783,264.735 176.563,201.778 176.563 L 119.493 176.563 119.708 163.531 L 119.922 150.499 128.476 143.940 L 137.031 137.380 212.373 137.575 C 285.093 137.762,287.752 137.718,288.779 136.313 C 290.168 134.414,290.125 132.780,288.628 130.643 L 287.411 128.906 217.818 128.906 L 148.225 128.906 168.839 113.290 L 189.453 97.673 224.472 97.665 L 259.491 97.656 294.589 124.297 M162.500 204.688 L 162.500 224.219 141.016 224.219 L 119.531 224.219 119.531 204.688 L 119.531 185.156 141.016 185.156 L 162.500 185.156 162.500 204.688 M195.313 233.999 L 195.313 282.841 183.594 301.301 L 171.875 319.761 171.875 252.458 L 171.875 185.156 183.594 185.156 L 195.313 185.156 195.313 233.999 M235.938 202.026 L 235.938 218.895 220.619 243.041 C 212.195 256.322,205.163 267.188,204.994 267.188 C 204.826 267.188,204.688 248.730,204.688 226.172 L 204.688 185.156 220.313 185.156 L 235.938 185.156 235.938 202.026 M257.031 185.495 C 257.031 185.682,254.395 189.959,251.172 194.999 L 245.313 204.163 245.313 194.660 L 245.313 185.156 251.172 185.156 C 254.395 185.156,257.031 185.309,257.031 185.495 M277.344 204.965 L 277.344 224.774 232.544 295.395 L 187.745 366.016 179.810 366.238 L 171.875 366.461 171.875 351.746 L 171.875 337.032 220.108 261.094 L 268.340 185.156 272.842 185.156 L 277.344 185.156 277.344 204.965 M258.059 221.106 C 255.780 222.015,254.536 224.516,255.149 226.958 C 256.499 232.335,264.844 231.230,264.844 225.674 C 264.844 221.995,261.491 219.738,258.059 221.106 M162.500 253.516 L 162.500 273.438 141.016 273.438 L 119.531 273.438 119.531 253.516 L 119.531 233.594 141.016 233.594 L 162.500 233.594 162.500 253.516 M329.688 253.516 L 329.688 273.438 307.813 273.438 L 285.938 273.438 285.938 253.516 L 285.938 233.594 307.813 233.594 L 329.688 233.594 329.688 253.516 M277.344 304.688 L 277.344 366.406 261.328 366.406 L 245.313 366.406 245.301 343.555 C 245.288 318.062,245.104 316.969,240.751 316.548 C 235.867 316.076,235.938 315.702,235.938 342.283 L 235.938 366.406 217.201 366.406 L 198.465 366.406 206.512 353.711 C 260.318 268.816,276.779 242.969,277.037 242.969 C 277.206 242.969,277.344 270.742,277.344 304.688 M110.156 267.578 L 110.156 273.438 73.047 273.438 C 30.132 273.438,32.813 273.932,32.813 266.016 L 32.813 261.719 71.484 261.719 L 110.156 261.719 110.156 267.578 M226.528 269.964 C 223.801 273.250,226.172 278.125,230.497 278.125 C 234.479 278.125,236.731 272.780,233.929 269.978 C 232.351 268.400,227.833 268.392,226.528 269.964 M162.500 324.219 L 162.500 366.406 141.016 366.406 L 119.531 366.406 119.531 347.266 L 119.531 328.125 135.938 328.125 C 153.689 328.125,155.469 327.698,155.469 323.438 C 155.469 319.177,153.689 318.750,135.938 318.750 L 119.531 318.750 119.531 300.391 L 119.531 282.031 141.016 282.031 L 162.500 282.031 162.500 324.219 M329.688 300.391 L 329.688 318.750 307.813 318.750 L 285.938 318.750 285.938 300.391 L 285.938 282.031 307.813 282.031 L 329.688 282.031 329.688 300.391 M329.688 347.266 L 329.688 366.406 307.813 366.406 L 285.938 366.406 285.938 347.266 L 285.938 328.125 307.813 328.125 L 329.688 328.125 329.688 347.266 M184.040 336.384 C 179.884 340.540,185.343 346.577,190.676 343.723 C 192.422 342.788,192.808 337.652,191.250 336.094 C 189.913 334.757,185.490 334.935,184.040 336.384 " stroke="none" fill="#000000" fill-rule="evenodd"></path></g></svg>