<svg id="svg" version="1.1" xmlns="http://www.w3.org/2000/svg" xmlns:xlink="http://www.w3.org/1999/xlink" width="400" height="400" viewBox="0, 0, 400,400"><g id="svgg"><path id="path0" d="M190.225 7.688 C 146.082 46.994,120.812 99.898,117.114 160.746 C 113.506 220.124,115.964 224.219,155.220 224.219 L 175.781 224.219 175.781 233.594 L 175.781 242.969 172.266 242.969 L 168.750 242.969 168.758 313.477 L 168.765 383.984 170.599 387.891 C 175.503 398.341,178.685 399.609,200.000 399.609 C 221.315 399.609,224.497 398.341,229.401 387.891 L 231.235 383.984 231.242 313.477 L 231.250 242.969 227.734 242.969 L 224.219 242.969 224.219 233.594 L 224.219 224.219 244.780 224.219 C 284.036 224.219,286.494 220.124,282.886 160.746 C 279.167 99.544,253.103 45.404,208.772 6.796 C 199.249 -1.498,200.616 -1.564,190.225 7.688 M193.750 116.823 L 193.750 211.772 163.689 211.550 L 133.628 211.328 131.462 209.158 L 129.297 206.988 129.355 182.596 C 129.480 129.702,139.202 94.334,163.655 57.813 C 172.019 45.321,191.437 21.875,193.418 21.875 C 193.601 21.875,193.750 64.602,193.750 116.823 M224.746 41.797 C 256.865 81.410,270.505 123.250,270.645 182.596 L 270.703 206.988 268.538 209.158 L 266.372 211.328 236.311 211.550 L 206.250 211.772 206.288 116.628 L 206.326 21.484 213.002 28.516 C 216.674 32.383,221.958 38.359,224.746 41.797 M235.156 76.671 C 233.223 77.953,231.179 79.271,230.615 79.599 C 229.840 80.049,230.751 82.283,234.339 88.730 C 239.235 97.529,245.916 113.610,247.742 120.988 C 249.006 126.097,249.559 126.344,255.909 124.625 C 259.701 123.599,260.938 122.922,260.938 121.873 C 260.938 116.627,248.631 86.927,242.243 76.758 C 240.316 73.690,239.665 73.682,235.156 76.671 M133.594 181.339 C 133.594 204.809,134.874 207.177,147.852 207.695 L 154.688 207.968 154.688 201.640 L 154.688 195.313 150.391 195.313 L 146.094 195.313 146.094 179.688 L 146.094 164.063 139.844 164.063 L 133.594 164.063 133.594 181.339 M160.938 201.563 L 160.938 207.813 167.969 207.813 L 175.000 207.813 175.000 201.563 L 175.000 195.313 167.969 195.313 L 160.938 195.313 160.938 201.563 M211.719 233.594 L 211.719 242.969 200.000 242.969 L 188.281 242.969 188.281 233.594 L 188.281 224.219 200.000 224.219 L 211.719 224.219 211.719 233.594 M218.750 258.891 L 218.750 262.313 206.445 262.648 C 189.192 263.118,182.821 267.503,182.821 278.906 C 182.821 290.415,189.090 294.531,206.616 294.531 L 218.750 294.531 218.750 299.219 L 218.750 303.906 207.708 303.906 C 188.534 303.906,181.041 309.697,183.223 322.829 C 184.954 333.243,189.842 335.938,207.006 335.938 L 218.750 335.938 218.750 340.625 L 218.750 345.313 207.006 345.313 C 188.739 345.313,183.393 348.830,183.259 360.938 C 183.123 373.242,188.149 376.852,205.924 377.216 L 218.750 377.478 218.750 379.833 C 218.750 381.469,217.939 382.998,216.094 384.844 L 213.437 387.500 200.000 387.500 L 186.563 387.500 183.906 384.844 L 181.250 382.188 181.250 318.828 L 181.250 255.469 200.000 255.469 L 218.750 255.469 218.750 258.891 M218.750 278.516 L 218.750 282.031 207.969 282.031 C 196.875 282.031,195.313 281.632,195.313 278.794 C 195.313 275.823,198.232 275.000,208.768 275.000 L 218.750 275.000 218.750 278.516 M218.750 319.922 L 218.750 323.438 207.969 323.438 C 196.885 323.438,195.313 323.037,195.313 320.212 C 195.313 316.971,197.234 316.406,208.259 316.406 L 218.750 316.406 218.750 319.922 M218.750 361.328 L 218.750 364.844 208.259 364.844 C 195.902 364.844,193.702 363.843,196.121 359.324 C 196.862 357.940,197.853 357.813,207.840 357.813 L 218.750 357.813 218.750 361.328 " stroke="none" fill="#000000" fill-rule="evenodd"></path></g></svg>