<svg id="svg" version="1.1" xmlns="http://www.w3.org/2000/svg" xmlns:xlink="http://www.w3.org/1999/xlink" width="400" height="400" viewBox="0, 0, 400,400"><g id="svgg"><path id="path0" d="M268.546 27.157 C 251.238 44.488,250.872 41.008,272.255 62.472 L 289.041 79.321 216.866 151.494 C 171.911 196.447,144.289 223.512,143.626 223.257 C 143.041 223.033,131.584 216.126,118.167 207.909 C 102.188 198.123,93.037 192.969,91.641 192.969 C 89.888 192.969,85.095 197.367,64.616 217.773 C 20.408 261.825,18.010 266.937,15.128 323.278 C 13.305 358.913,14.301 364.051,25.125 374.875 C 35.947 385.697,41.084 386.693,76.722 384.879 C 132.925 382.017,138.246 379.521,182.227 335.384 C 202.801 314.736,207.031 310.122,207.031 308.329 C 207.031 306.893,202.034 298.029,192.122 281.884 C 183.922 268.528,177.015 257.085,176.774 256.455 C 176.478 255.684,199.946 231.697,248.506 183.134 L 320.679 110.959 337.528 127.745 C 359.009 149.145,355.537 148.782,372.860 131.437 C 384.763 119.519,385.937 118.098,385.938 115.624 C 385.938 111.397,288.587 14.063,284.359 14.063 C 281.861 14.063,280.487 15.200,268.546 27.157 M364.662 123.230 L 357.460 130.461 340.603 113.668 C 318.765 91.912,322.412 92.162,303.357 111.116 L 289.040 125.358 281.841 118.159 L 274.642 110.960 288.884 96.643 C 307.838 77.588,308.087 81.234,286.337 59.402 L 269.549 42.550 276.763 35.336 L 283.977 28.122 327.920 72.060 L 371.863 115.998 364.662 123.230 M240.445 174.008 L 200.408 214.051 193.166 206.839 L 185.925 199.628 225.961 159.585 L 265.998 119.543 273.240 126.755 L 280.481 133.966 240.445 174.008 M115.126 220.017 C 126.787 227.159,136.419 233.080,136.530 233.175 C 136.641 233.269,131.205 241.224,124.450 250.853 C 110.307 271.013,109.375 272.629,109.375 276.995 C 109.375 286.854,120.279 293.678,128.936 289.238 C 130.424 288.475,139.504 282.305,149.114 275.527 C 158.725 268.748,166.676 263.308,166.783 263.437 C 167.949 264.840,192.969 306.257,192.969 306.785 C 192.969 307.178,181.982 318.407,168.555 331.739 C 130.975 369.051,127.784 370.492,76.869 373.134 C 42.901 374.897,38.646 374.002,30.845 363.446 C 25.474 356.179,25.334 354.781,26.875 323.828 C 29.445 272.207,30.831 269.113,68.262 231.445 C 81.605 218.018,92.837 207.031,93.223 207.031 C 93.608 207.031,103.464 212.875,115.126 220.017 M184.770 215.629 L 191.772 222.664 178.113 236.387 C 165.141 249.418,163.421 250.835,143.961 264.508 C 115.887 284.234,115.772 284.139,134.797 256.899 C 147.361 238.909,174.068 208.594,177.352 208.594 C 177.580 208.594,180.918 211.760,184.770 215.629 M70.064 249.142 C 62.389 256.622,62.590 263.281,70.492 263.281 C 73.568 263.281,83.355 253.963,84.044 250.378 C 85.602 242.275,77.816 241.587,70.064 249.142 M52.945 268.555 C 46.862 275.463,42.495 291.662,42.015 309.097 C 41.762 318.296,42.728 320.313,47.387 320.313 C 52.577 320.313,53.252 318.498,54.295 301.746 C 54.805 293.556,56.776 286.403,60.637 278.730 C 63.736 272.573,63.802 271.966,61.662 269.246 C 59.691 266.740,54.878 266.359,52.945 268.555 " stroke="none" fill="#000000" fill-rule="evenodd"></path></g></svg>