<svg id="svg" version="1.1" xmlns="http://www.w3.org/2000/svg" xmlns:xlink="http://www.w3.org/1999/xlink" width="400" height="400" viewBox="0, 0, 400,400"><g id="svgg"><path id="path0" d="M4.921 1.468 C -1.236 5.376,-1.368 15.721,4.341 46.656 C 24.657 156.728,86.278 227.066,177.321 244.107 C 180.961 244.788,184.185 245.602,184.485 245.915 C 185.701 247.182,190.119 272.392,191.798 287.640 L 192.286 292.077 188.526 292.599 C 171.710 294.934,157.634 299.893,145.466 307.769 L 140.542 310.957 136.091 309.640 C 124.733 306.280,109.600 309.052,100.200 316.216 C 97.710 318.113,97.572 318.129,92.387 317.087 C 47.905 308.146,2.873 342.386,0.221 387.165 L -0.198 394.251 2.326 397.126 L 4.849 400.000 96.956 400.000 C 200.850 400.000,192.187 400.533,192.187 394.141 C 192.187 387.758,200.365 388.281,100.693 388.281 L 12.323 388.281 12.857 384.719 C 18.503 347.069,56.271 321.071,92.431 329.944 C 100.160 331.841,101.056 331.681,106.607 327.427 C 115.277 320.781,126.007 318.940,134.990 322.556 C 141.164 325.042,143.016 324.755,149.544 320.306 C 170.455 306.056,198.415 301.058,222.135 307.329 C 231.628 309.839,231.738 309.823,238.015 305.012 C 262.860 285.971,301.262 293.835,315.985 320.979 C 319.592 327.628,319.772 327.750,326.953 328.438 C 357.955 331.406,387.386 359.834,387.495 386.914 C 387.500 388.208,382.777 388.281,299.219 388.281 C 199.646 388.281,207.812 387.758,207.812 394.141 C 207.812 400.532,199.180 400.000,302.813 400.000 L 394.688 400.000 397.449 397.239 L 400.210 394.477 399.782 387.278 C 397.702 352.301,363.382 316.550,331.736 316.394 C 328.520 316.379,328.267 316.158,323.993 309.672 C 305.376 281.417,263.818 273.305,234.216 292.147 L 228.192 295.981 221.713 294.522 C 218.150 293.719,212.861 292.837,209.961 292.563 C 207.061 292.288,204.684 291.827,204.680 291.539 C 204.677 291.251,204.141 286.495,203.490 280.969 L 202.308 270.922 207.267 261.437 C 212.259 251.890,220.640 238.630,224.841 233.633 L 227.108 230.937 234.160 231.876 C 293.172 239.733,343.682 213.652,376.081 158.594 C 390.778 133.620,390.347 130.055,371.934 124.286 C 300.291 101.840,250.123 122.594,227.291 184.124 C 223.085 195.460,218.751 212.966,218.750 218.621 C 218.750 219.653,216.305 223.785,213.125 228.127 C 210.031 232.352,205.497 238.998,203.048 242.895 L 198.597 249.980 197.430 244.778 C 196.333 239.888,196.372 238.940,198.072 228.968 C 204.095 193.637,203.488 155.554,196.403 124.305 C 194.926 117.793,193.275 115.625,189.792 115.625 C 183.315 115.625,182.403 118.259,184.754 130.178 C 189.611 154.793,190.794 174.419,188.927 199.409 L 188.009 211.708 184.334 202.143 C 166.837 156.600,139.043 113.772,105.210 80.217 C 86.955 62.113,83.605 60.074,79.261 64.418 C 75.468 68.211,76.401 70.501,84.961 78.404 C 128.857 118.933,161.411 169.576,178.599 224.073 L 181.140 232.131 178.656 231.625 C 105.426 216.697,54.970 168.711,28.214 88.548 C 20.209 64.565,12.500 27.938,12.500 13.891 C 12.500 11.171,40.231 12.207,61.328 15.714 C 113.401 24.372,149.254 48.621,170.494 89.548 C 175.278 98.768,176.031 99.749,178.516 100.014 C 188.755 101.103,188.047 92.680,176.305 73.714 C 146.821 26.094,97.388 1.858,26.563 0.301 C 8.273 -0.101,7.311 -0.049,4.921 1.468 M339.453 129.252 C 350.283 131.126,371.246 136.610,372.544 137.908 C 373.756 139.120,358.326 163.745,350.526 173.047 C 323.470 205.310,292.909 220.547,255.078 220.633 C 235.220 220.678,235.377 220.802,244.217 212.099 C 261.493 195.090,283.285 180.149,307.780 168.519 C 313.144 165.973,317.971 163.313,318.507 162.609 C 321.323 158.909,318.253 153.125,313.474 153.125 C 303.536 153.125,252.373 184.761,240.234 198.412 C 239.375 199.378,237.720 200.847,236.557 201.676 L 234.442 203.184 235.655 199.053 C 251.238 145.990,289.093 120.534,339.453 129.252 " stroke="none" fill="#000000" fill-rule="evenodd"></path></g></svg>