<svg id="svg" version="1.1" xmlns="http://www.w3.org/2000/svg" xmlns:xlink="http://www.w3.org/1999/xlink" width="400" height="400" viewBox="0, 0, 400,400"><g id="svgg"><path id="path0" d="M177.804 1.222 C 121.607 10.310,76.025 48.875,58.651 102.031 C 46.776 138.361,49.751 180.792,66.524 214.322 C 72.103 225.475,72.661 226.293,131.466 309.570 L 184.289 384.375 131.704 384.375 L 79.119 384.375 77.060 386.435 C 74.124 389.371,74.124 395.004,77.060 397.940 L 79.119 400.000 200.000 400.000 L 320.881 400.000 322.940 397.940 C 325.876 395.004,325.876 389.371,322.940 386.435 L 320.881 384.375 268.292 384.375 L 215.703 384.375 236.383 355.095 C 259.919 321.773,261.142 318.976,253.835 315.198 C 246.552 311.431,246.972 311.013,221.094 347.841 C 209.707 364.046,200.215 377.303,200.000 377.302 C 199.348 377.297,88.897 220.490,85.634 214.936 C 54.056 161.192,65.699 89.928,112.717 49.162 C 197.136 -24.030,328.866 32.946,331.852 143.942 C 332.826 180.161,325.904 199.531,297.784 239.283 C 281.747 261.952,282.031 261.483,282.031 265.243 C 282.031 270.875,288.337 274.377,293.909 271.839 C 297.192 270.343,326.411 228.119,332.700 215.783 C 353.534 174.915,353.886 124.493,333.626 83.113 C 313.168 41.329,274.549 11.644,228.473 2.285 C 217.417 0.039,188.828 -0.561,177.804 1.222 M182.265 80.060 C 132.890 92.822,113.022 152.865,144.964 192.787 C 181.004 237.832,254.208 221.880,268.412 165.886 C 281.563 114.043,234.025 66.682,182.265 80.060 M212.333 95.809 C 230.733 99.641,247.557 116.050,252.366 134.851 C 265.959 188.002,200.850 225.149,162.069 186.369 C 123.555 147.854,158.649 84.626,212.333 95.809 M264.560 287.997 C 262.915 289.642,262.500 290.801,262.500 293.750 C 262.500 296.699,262.915 297.858,264.560 299.503 C 266.204 301.147,267.364 301.563,270.313 301.563 C 273.261 301.563,274.421 301.147,276.065 299.503 C 277.710 297.858,278.125 296.699,278.125 293.750 C 278.125 290.801,277.710 289.642,276.065 287.997 C 274.421 286.353,273.261 285.938,270.313 285.938 C 267.364 285.938,266.204 286.353,264.560 287.997 " stroke="none" fill="#000000" fill-rule="evenodd"></path></g></svg>