<svg id="svg" version="1.1" xmlns="http://www.w3.org/2000/svg" xmlns:xlink="http://www.w3.org/1999/xlink" width="400" height="400" viewBox="0, 0, 400,400"><g id="svgg"><path id="path0" d="M307.031 19.290 C 302.879 19.985,297.042 22.167,291.797 24.984 C 283.620 29.375,283.745 29.368,276.411 25.851 C 238.246 7.550,203.543 52.972,233.289 82.293 L 236.328 85.289 236.210 92.840 C 236.071 101.758,234.352 110.565,231.104 118.998 C 228.353 126.142,227.451 126.294,228.991 119.355 C 234.533 94.371,218.508 62.940,195.578 53.819 C 166.820 42.379,127.429 72.264,127.355 105.579 C 127.345 110.334,127.194 110.806,125.551 111.218 C 116.710 113.437,103.648 127.568,101.169 137.594 L 100.663 139.642 96.886 136.032 C 81.517 121.341,51.079 116.260,32.031 125.205 C 3.753 138.486,-0.015 184.218,25.078 209.589 C 31.818 216.404,31.854 216.461,31.182 219.355 C 26.672 238.773,35.532 256.455,54.423 265.736 C 62.215 269.565,62.392 269.712,64.026 273.739 C 64.942 275.995,67.433 280.770,69.562 284.350 L 73.433 290.858 70.102 294.452 C 68.270 296.429,65.887 299.192,64.807 300.591 L 62.842 303.136 49.195 297.623 C 33.110 291.125,29.982 290.541,25.006 293.110 C 17.231 297.124,14.957 306.281,19.919 313.593 L 21.828 316.406 17.477 316.406 C 11.971 316.406,8.215 318.175,5.723 321.941 C -0.795 331.790,5.981 343.750,18.080 343.750 L 22.147 343.750 20.501 345.508 C 14.999 351.381,16.672 361.863,23.776 366.027 C 29.348 369.292,32.693 368.803,48.717 362.385 L 62.668 356.798 64.679 359.454 C 70.650 367.342,80.305 374.563,88.523 377.288 C 98.944 380.743,98.016 380.785,139.453 375.007 C 160.508 372.072,212.363 364.861,254.688 358.982 C 340.638 347.045,338.013 347.585,342.087 341.008 C 343.356 338.960,345.480 336.984,347.644 335.839 C 360.201 329.194,379.688 309.393,379.688 303.279 C 379.687 296.331,373.404 296.353,368.352 303.320 C 363.715 309.716,354.851 318.642,349.203 322.604 L 344.697 325.765 344.212 323.834 C 341.995 315.001,340.586 314.615,274.055 304.580 L 215.688 295.776 213.323 288.318 C 210.867 280.573,209.138 271.656,208.196 261.882 L 207.647 256.185 211.484 252.116 C 223.206 239.683,230.179 223.527,231.040 206.808 L 231.474 198.381 235.464 194.770 C 240.117 190.558,247.777 185.448,254.044 182.375 L 258.464 180.207 262.630 183.956 C 264.922 186.017,268.994 188.788,271.680 190.113 C 277.717 193.093,277.773 192.751,270.586 196.840 C 250.976 207.997,251.414 231.818,271.094 224.441 C 273.737 223.450,277.419 223.097,285.938 223.021 C 296.245 222.928,297.720 222.733,302.306 220.861 C 305.078 219.730,307.406 218.880,307.480 218.973 C 307.554 219.065,308.216 220.323,308.951 221.769 C 311.123 226.037,316.340 231.141,321.826 234.365 C 326.942 237.371,331.813 241.892,335.074 246.660 C 340.391 254.434,350.799 249.905,353.091 238.819 C 354.119 233.846,352.850 228.262,348.845 220.131 C 346.284 214.932,346.239 214.700,347.884 215.146 C 351.398 216.100,362.224 216.498,365.716 215.802 L 369.323 215.084 371.936 219.066 C 379.756 230.981,382.358 240.734,382.398 258.284 C 382.434 273.949,382.729 275.000,387.084 275.000 C 392.136 275.000,392.578 273.564,392.578 257.145 C 392.578 238.925,390.149 229.231,382.344 216.304 C 379.085 210.908,378.978 211.661,383.422 208.781 C 399.164 198.581,400.772 185.824,386.014 188.221 C 377.060 189.675,374.263 188.858,365.477 182.223 C 357.814 176.437,351.813 174.081,343.528 173.609 L 336.551 173.211 337.028 170.395 C 337.291 168.846,337.731 164.519,338.008 160.779 L 338.510 153.980 340.935 153.478 C 369.603 147.537,378.303 113.537,356.939 90.933 C 351.307 84.975,350.918 83.488,353.000 75.893 C 362.120 42.613,338.853 13.963,307.031 19.290 M326.898 31.891 C 342.512 39.197,348.616 55.362,342.831 74.089 C 339.796 83.916,341.800 90.852,349.956 98.758 C 363.886 112.259,360.738 133.312,343.574 141.429 C 337.866 144.129,338.369 144.428,337.433 137.778 C 334.851 119.429,330.637 115.560,317.753 119.709 C 312.443 121.420,312.330 121.424,311.253 119.951 C 309.993 118.228,309.776 112.827,310.938 112.109 C 315.072 109.554,310.429 103.492,302.871 101.581 C 291.460 98.694,284.679 93.395,280.445 84.057 C 276.742 75.890,273.641 74.769,267.654 79.436 C 255.154 89.181,234.026 76.010,232.968 57.813 C 231.781 37.411,253.117 25.652,273.007 35.745 C 277.522 38.036,279.379 38.543,283.304 38.557 C 288.143 38.574,288.541 38.428,299.411 32.646 C 307.745 28.214,318.413 27.920,326.898 31.891 M190.977 63.334 C 211.371 70.964,224.661 99.125,217.957 120.508 C 215.926 126.987,215.848 126.615,220.317 131.722 C 232.197 145.298,232.387 160.542,220.904 178.724 L 217.697 183.802 219.095 188.971 C 224.557 209.173,218.295 230.358,201.850 247.305 L 196.582 252.734 196.001 244.531 C 194.464 222.807,187.883 207.199,174.851 194.367 L 167.940 187.563 170.146 178.763 L 172.352 169.964 181.377 165.431 C 198.586 156.788,210.313 142.344,204.688 136.719 C 201.643 133.674,198.248 134.824,195.749 139.746 C 192.943 145.271,177.689 158.418,176.021 156.750 C 175.719 156.448,178.479 146.825,186.100 121.607 C 192.999 98.779,193.151 97.323,188.786 95.870 C 183.504 94.112,182.072 97.397,170.633 137.500 C 168.243 145.879,166.134 153.215,165.946 153.803 C 165.003 156.746,158.255 143.513,156.852 135.971 C 156.165 132.278,156.174 129.840,156.887 125.680 C 157.939 119.544,157.381 117.579,154.249 116.388 C 141.151 111.408,144.529 146.885,158.664 162.743 L 162.551 167.104 160.639 174.631 C 158.386 183.506,158.567 183.243,155.707 181.764 C 154.061 180.913,152.867 179.165,151.265 175.261 C 144.476 158.714,131.467 147.525,116.239 145.134 C 110.363 144.212,110.224 144.139,110.669 142.211 C 112.938 132.392,121.085 123.803,131.888 119.842 C 137.107 117.928,137.500 117.168,137.500 108.999 C 137.500 80.215,167.538 54.564,190.977 63.334 M272.852 92.257 L 274.220 94.660 269.416 100.469 C 263.715 107.360,263.825 107.391,264.499 99.080 L 265.031 92.526 267.867 91.260 C 269.427 90.564,270.879 89.962,271.094 89.924 C 271.309 89.885,272.100 90.935,272.852 92.257 M253.304 92.684 C 254.530 93.029,254.609 94.045,254.167 103.773 C 253.529 117.793,255.018 121.139,261.863 121.066 C 265.791 121.024,267.284 119.824,274.221 111.133 C 281.040 102.589,281.423 102.345,284.265 104.712 L 286.108 106.248 281.688 111.022 C 275.292 117.931,274.734 118.970,275.200 123.111 C 276.017 130.361,279.376 131.774,293.314 130.731 C 302.282 130.059,302.344 130.066,302.344 131.760 C 302.344 132.698,302.539 133.975,302.778 134.598 C 303.092 135.417,302.259 135.970,299.768 136.597 C 293.141 138.266,282.491 144.282,276.745 149.601 C 273.724 152.399,270.851 154.688,270.360 154.688 C 268.413 154.688,263.490 151.504,260.189 148.111 C 256.519 144.339,252.361 143.264,250.117 145.508 C 249.580 146.045,250.355 143.848,251.839 140.625 C 257.238 128.902,257.241 127.006,251.863 126.199 C 249.869 125.900,247.831 125.499,247.333 125.308 C 246.795 125.102,246.027 126.475,245.440 128.692 C 244.896 130.743,243.191 134.984,241.650 138.115 L 238.847 143.809 237.072 139.441 L 235.297 135.072 237.886 129.450 C 242.629 119.150,245.379 108.686,246.510 96.632 L 247.009 91.312 249.481 91.808 C 250.841 92.081,252.561 92.475,253.304 92.684 M299.844 115.820 L 300.078 120.313 296.328 120.321 C 294.266 120.326,291.179 120.561,289.468 120.843 L 286.358 121.357 291.030 116.150 C 297.277 109.189,299.493 109.106,299.844 115.820 M326.292 133.362 C 329.544 146.713,328.112 168.793,323.002 184.065 C 319.937 193.226,319.819 194.253,321.605 196.228 C 325.063 200.048,329.326 197.332,332.117 189.530 C 334.280 183.483,334.830 183.193,343.001 183.777 C 349.265 184.226,354.671 186.592,360.514 191.443 C 365.548 195.622,368.069 196.917,374.106 198.423 L 379.071 199.662 375.196 201.771 C 366.016 206.767,356.515 207.326,345.342 203.526 C 334.089 199.698,328.096 203.779,332.784 212.076 C 345.340 234.296,347.360 243.264,337.632 233.597 C 334.766 230.749,330.437 227.294,328.011 225.918 C 321.018 221.951,315.625 214.923,315.625 209.776 C 315.625 204.072,309.556 202.215,305.190 206.581 C 299.907 211.863,296.834 212.873,286.630 212.675 C 278.453 212.517,273.471 213.020,268.086 214.546 C 266.259 215.064,266.256 215.056,267.529 212.595 C 269.076 209.604,273.378 206.768,284.868 201.166 C 293.856 196.784,294.531 196.134,294.531 191.869 C 294.531 188.360,292.178 186.488,285.156 184.409 C 274.654 181.299,265.909 174.620,261.805 166.575 C 259.430 161.920,259.661 161.689,264.648 163.741 C 268.608 165.369,270.406 165.590,279.801 165.606 C 291.965 165.628,298.508 167.122,303.047 170.916 L 305.704 173.136 304.792 179.264 C 303.558 187.560,306.525 191.842,311.619 189.116 C 316.156 186.688,318.227 148.799,314.477 136.817 C 312.933 131.883,312.958 131.848,319.531 129.841 C 325.507 128.016,324.914 127.707,326.292 133.362 M68.029 132.366 C 79.226 134.740,88.638 140.762,94.930 149.579 C 96.934 152.389,98.983 154.728,99.483 154.778 C 99.982 154.828,104.082 154.916,108.594 154.973 C 124.564 155.177,136.016 164.087,142.667 181.482 C 145.413 188.661,146.003 189.316,151.544 191.337 C 162.556 195.352,172.905 205.109,178.549 216.797 C 185.388 230.962,186.519 240.266,185.387 273.070 L 184.766 291.062 177.539 289.979 C 173.281 289.341,170.309 288.529,170.304 288.003 C 170.299 287.511,165.968 282.809,160.680 277.552 L 151.065 267.995 152.143 261.927 C 155.426 243.437,150.771 221.875,143.495 221.875 C 138.142 221.875,137.115 225.401,140.392 232.523 C 142.653 237.437,144.129 255.403,142.412 257.119 C 141.593 257.938,130.614 245.559,115.485 226.759 L 106.526 215.627 108.001 209.962 C 112.693 191.938,108.791 170.313,100.847 170.313 C 95.813 170.313,95.115 174.077,98.455 183.203 C 100.186 187.929,100.465 201.258,98.887 203.811 C 98.201 204.921,91.670 196.593,76.117 174.776 C 62.354 155.469,60.884 154.264,57.044 159.146 C 54.303 162.630,57.158 167.373,81.635 200.000 C 85.987 205.801,89.844 211.040,90.207 211.644 C 90.758 212.560,90.026 212.654,85.751 212.216 C 75.803 211.197,68.355 207.640,61.548 200.657 C 57.455 196.459,54.931 195.850,52.344 198.437 C 44.208 206.573,67.371 221.653,89.063 222.343 L 98.828 222.654 107.144 233.019 C 111.717 238.721,119.854 248.477,125.225 254.700 C 130.596 260.924,134.702 266.324,134.350 266.700 C 131.373 269.881,110.219 265.754,103.240 260.631 C 94.856 254.477,87.711 260.618,95.289 267.464 C 104.602 275.878,122.159 279.489,138.822 276.419 L 143.840 275.495 149.459 281.151 C 153.916 285.637,154.674 286.715,153.125 286.365 C 147.018 284.983,108.726 279.690,104.916 279.701 C 99.313 279.718,91.486 281.351,86.330 283.579 L 82.426 285.266 81.252 283.647 C 80.606 282.757,77.617 277.245,74.609 271.398 L 69.141 260.769 63.518 258.608 C 45.169 251.555,37.098 237.037,41.797 219.531 C 43.813 212.020,43.642 211.533,37.305 206.750 C 25.015 197.476,18.718 183.713,18.769 166.244 C 18.846 140.051,38.975 126.207,68.029 132.366 M306.250 153.209 C 306.250 159.682,306.127 160.272,304.883 159.749 C 298.588 157.106,295.325 156.158,290.795 155.656 L 285.547 155.075 289.844 152.414 C 303.329 144.060,306.250 144.202,306.250 153.209 M249.961 164.015 C 250.833 166.834,251.872 169.641,252.271 170.254 C 252.833 171.117,251.892 171.922,248.079 173.840 C 243.940 175.922,236.619 180.565,230.402 185.050 C 229.402 185.771,230.193 183.623,232.847 178.410 C 235.005 174.171,237.384 168.214,238.135 165.172 C 239.158 161.025,240.347 158.580,242.886 155.406 C 244.748 153.077,246.489 150.645,246.754 150.000 C 247.019 149.355,247.492 151.092,247.805 153.859 C 248.119 156.626,249.089 161.196,249.961 164.015 M202.624 289.009 C 203.329 291.343,203.906 293.404,203.906 293.590 C 203.906 294.321,196.449 292.760,195.910 291.916 C 194.613 289.881,195.236 267.786,196.634 266.241 C 197.889 264.854,198.041 265.283,199.649 274.773 C 200.580 280.269,201.919 286.675,202.624 289.009 M125.781 292.454 L 142.578 295.000 142.969 307.577 C 143.390 321.129,144.121 323.438,147.994 323.438 C 152.633 323.438,153.125 322.047,153.125 308.940 C 153.125 301.124,153.411 296.875,153.936 296.875 C 154.944 296.875,242.553 310.034,245.508 310.629 L 247.656 311.062 247.656 318.555 C 247.656 327.151,248.531 328.906,252.811 328.906 C 256.731 328.906,257.813 326.737,257.813 318.880 L 257.813 312.326 260.352 312.787 C 261.748 313.040,277.129 315.364,294.531 317.952 C 330.331 323.275,331.347 323.493,333.552 326.296 C 336.430 329.955,334.771 336.534,330.644 337.831 C 329.342 338.240,302.925 342.188,301.490 342.188 C 301.100 342.188,300.781 341.200,300.781 339.993 C 300.781 336.587,299.062 334.844,295.703 334.844 C 292.144 334.844,290.625 336.608,290.625 340.739 C 290.625 343.444,290.422 343.715,288.086 344.122 C 281.895 345.203,220.890 353.906,219.508 353.906 C 218.084 353.906,217.969 353.348,217.969 346.449 C 217.969 338.435,216.416 335.156,212.622 335.156 C 208.749 335.156,207.843 337.278,207.626 346.860 L 207.422 355.829 158.594 362.887 L 109.766 369.946 109.375 356.036 C 108.947 340.811,108.896 340.660,104.146 340.637 C 99.742 340.616,99.219 342.344,99.219 356.899 L 99.219 369.701 97.234 369.202 C 88.981 367.131,79.599 361.365,74.882 355.464 L 72.692 352.726 74.597 348.824 C 80.347 337.044,80.061 321.429,73.876 309.468 L 72.580 306.962 77.528 302.015 C 89.587 289.955,98.129 288.263,125.781 292.454 M44.333 306.765 C 59.774 312.902,58.074 311.873,57.451 314.710 L 56.941 317.031 52.104 316.599 C 47.488 316.187,33.574 311.077,29.121 308.160 C 27.020 306.783,26.850 304.966,28.637 302.991 C 30.365 301.081,29.527 300.880,44.333 306.765 M174.665 319.978 C 172.694 321.948,172.867 344.554,174.866 346.363 C 176.804 348.117,180.133 347.992,182.031 346.094 C 184.133 343.992,184.412 323.391,182.378 320.486 C 180.916 318.399,176.532 318.110,174.665 319.978 M56.055 327.021 L 68.750 327.510 68.750 330.036 L 68.750 332.563 49.873 333.078 C 14.705 334.039,14.063 333.983,14.063 329.966 C 14.063 325.960,19.190 325.600,56.055 327.021 M57.380 345.035 C 58.059 347.739,58.499 347.466,44.531 353.011 C 31.358 358.240,29.395 358.623,28.109 356.220 C 26.592 353.385,27.912 351.796,33.823 349.346 C 36.920 348.062,41.563 346.133,44.141 345.059 C 50.887 342.247,56.678 342.236,57.380 345.035 " stroke="none" fill="#000000" fill-rule="evenodd"></path></g></svg>