<svg id="svg" version="1.1" xmlns="http://www.w3.org/2000/svg" xmlns:xlink="http://www.w3.org/1999/xlink" width="400" height="400" viewBox="0, 0, 400,400"><g id="svgg"><path id="path0" d="M76.144 3.841 L 73.385 7.682 68.919 5.869 C 22.807 -12.842,-17.289 44.029,16.282 80.530 L 20.889 85.539 12.007 98.554 C 2.290 112.792,1.388 115.321,4.883 118.528 C 9.763 123.006,101.671 178.906,104.154 178.906 C 108.080 178.906,108.203 178.731,123.835 151.076 L 138.462 125.199 154.192 125.508 C 182.471 126.065,187.500 126.477,187.500 128.238 C 187.500 130.973,191.068 133.717,194.269 133.445 C 199.145 133.030,199.614 131.687,203.274 107.628 L 206.571 85.959 204.965 83.800 C 201.826 79.578,195.296 80.910,193.557 86.127 C 193.349 86.749,188.767 86.112,178.395 84.019 L 163.531 81.018 169.337 70.630 C 175.288 59.983,175.991 57.098,173.192 54.824 C 172.682 54.410,152.635 41.906,128.642 27.036 C 78.673 -3.933,80.993 -2.908,76.144 3.841 M61.914 16.815 C 66.206 18.319,66.130 18.139,63.957 21.655 C 62.385 24.198,62.127 24.316,59.465 23.700 C 32.455 17.454,13.461 45.536,30.518 66.498 L 32.182 68.543 30.349 71.371 C 28.049 74.919,28.020 74.917,24.683 70.844 C 3.033 44.423,29.809 5.566,61.914 16.815 M121.991 38.003 C 142.552 50.741,159.375 61.413,159.375 61.719 C 159.375 62.476,113.303 143.896,112.194 145.098 C 111.373 145.988,30.304 96.703,30.134 95.211 C 30.069 94.643,83.827 14.896,84.296 14.865 C 84.467 14.853,101.430 25.266,121.991 38.003 M53.768 36.133 C 53.396 37.570,40.324 56.989,39.713 57.012 C 36.549 57.131,36.358 46.053,39.442 41.324 C 42.347 36.869,54.739 32.378,53.768 36.133 M128.307 78.303 C 126.368 79.238,115.846 97.135,115.130 100.717 C 114.184 105.446,121.485 109.492,125.279 106.343 C 127.240 104.715,137.500 85.927,137.500 83.964 C 137.500 78.960,132.865 76.106,128.307 78.303 M175.000 96.198 C 183.809 97.987,191.136 99.548,191.284 99.668 C 191.431 99.787,191.110 103.003,190.571 106.814 L 189.590 113.743 168.428 113.432 C 156.789 113.261,146.979 112.853,146.629 112.526 C 145.712 111.668,156.392 92.987,157.813 92.964 C 158.457 92.953,166.191 94.409,175.000 96.198 M215.095 96.241 C 211.417 98.019,210.954 104.297,214.326 106.659 C 218.760 109.765,224.219 106.984,224.219 101.619 C 224.219 96.680,219.698 94.016,215.095 96.241 M242.188 103.125 C 239.067 106.246,240.772 112.560,245.024 113.628 C 251.012 115.131,255.323 108.474,251.506 103.621 C 249.440 100.995,244.577 100.736,242.188 103.125 M64.349 132.021 L 105.312 157.401 103.812 160.341 C 101.771 164.342,105.299 166.140,59.449 137.730 L 18.212 112.179 20.239 109.247 C 22.746 105.618,16.690 102.492,64.349 132.021 M268.231 116.073 C 264.522 119.782,267.371 126.563,272.637 126.563 C 276.135 126.563,278.906 123.835,278.906 120.392 C 278.906 114.535,272.401 111.903,268.231 116.073 M210.292 120.558 C 206.943 124.124,209.458 131.250,214.066 131.250 C 220.084 131.250,223.234 124.726,219.176 120.668 C 216.639 118.130,212.620 118.081,210.292 120.558 M291.657 133.741 C 287.980 135.519,287.516 141.797,290.888 144.159 C 294.486 146.679,300.621 144.627,300.871 140.820 C 301.273 134.715,296.781 131.264,291.657 133.741 M236.775 141.902 C 232.958 146.756,237.270 153.412,243.257 151.909 C 247.509 150.842,249.215 144.527,246.094 141.406 C 243.705 139.017,238.841 139.276,236.775 141.902 M307.294 158.185 C 302.485 161.554,305.547 169.531,311.650 169.531 C 316.429 169.531,319.130 162.099,315.625 158.594 C 313.766 156.734,309.653 156.533,307.294 158.185 M256.307 170.027 C 252.337 175.074,257.169 181.701,263.269 179.575 C 266.049 178.605,267.188 176.838,267.188 173.489 C 267.188 168.125,259.681 165.737,256.307 170.027 M318.324 185.511 C 314.355 189.480,317.199 196.094,322.875 196.094 C 326.401 196.094,328.906 193.419,328.906 189.655 C 328.906 184.225,322.226 181.609,318.324 185.511 M267.250 201.367 C 264.525 203.594,264.240 208.061,266.668 210.489 C 270.885 214.706,277.344 212.026,277.344 206.061 C 277.344 201.028,271.175 198.160,267.250 201.367 M40.307 243.998 C 21.813 255.467,48.403 289.382,78.407 292.595 L 83.742 293.167 83.308 295.997 C 83.070 297.554,82.631 313.153,82.332 330.660 L 81.789 362.492 78.096 364.862 C 76.065 366.165,72.650 369.086,70.506 371.352 C 67.953 374.052,65.523 375.799,63.459 376.417 C 59.559 377.585,51.110 383.147,49.498 385.607 L 48.302 387.433 25.794 387.662 C 4.939 387.874,3.166 388.000,1.643 389.379 C -0.512 391.331,-0.639 396.836,1.429 398.707 C 3.765 400.821,396.792 400.687,398.707 398.571 C 400.605 396.474,400.406 391.235,398.357 389.379 C 396.837 388.002,395.068 387.873,374.773 387.660 C 353.159 387.432,352.814 387.403,351.643 385.707 C 346.581 378.371,338.036 372.232,330.112 370.238 C 327.618 369.611,324.572 367.921,321.557 365.492 C 318.982 363.417,316.594 361.719,316.250 361.719 C 315.906 361.719,315.625 352.799,315.625 341.898 L 315.625 322.077 321.198 321.528 C 351.441 318.548,379.121 283.043,359.387 272.542 C 351.790 268.499,332.978 275.351,320.969 286.535 L 317.328 289.926 317.704 285.002 C 317.910 282.294,318.792 274.453,319.663 267.578 C 322.354 246.334,322.324 248.034,320.051 245.761 C 315.047 240.757,310.132 244.123,308.693 253.541 C 308.170 256.964,307.549 260.756,307.313 261.967 L 306.884 264.169 302.036 259.514 C 288.637 246.647,269.850 239.274,261.880 243.753 C 242.445 254.676,269.160 289.346,299.517 292.597 L 304.866 293.170 304.381 296.390 C 304.114 298.160,303.667 312.529,303.387 328.320 L 302.879 357.031 297.698 357.031 C 294.848 357.031,290.420 357.581,287.859 358.253 C 283.582 359.375,282.683 359.366,276.809 358.142 C 264.654 355.607,250.783 357.916,241.821 363.964 L 238.189 366.416 235.696 364.545 C 228.596 359.218,220.009 356.679,210.689 357.149 L 204.688 357.452 204.690 350.796 C 204.692 347.136,204.921 339.170,205.199 333.095 L 205.704 322.050 210.469 321.527 C 241.414 318.126,268.113 284.287,249.031 272.652 C 242.087 268.418,226.107 273.763,212.193 284.972 L 206.808 289.310 207.346 282.741 C 207.995 274.806,209.959 259.063,210.956 253.811 C 212.507 245.632,206.707 240.744,201.136 245.536 C 199.314 247.103,198.909 248.373,197.833 255.888 L 196.607 264.453 191.945 259.875 C 178.556 246.723,158.268 238.838,150.781 243.876 C 133.496 255.507,156.846 287.428,186.055 292.096 L 193.955 293.359 193.472 302.344 C 193.206 307.285,192.753 321.751,192.466 334.490 L 191.944 357.652 184.280 357.229 C 175.609 356.752,167.987 358.171,161.418 361.488 L 157.601 363.415 152.433 361.050 C 142.895 356.685,130.658 355.720,123.431 358.764 C 121.002 359.787,120.336 359.783,117.572 358.724 C 115.397 357.891,111.438 357.513,104.493 357.476 L 94.532 357.422 94.532 339.821 L 94.531 322.220 101.637 321.253 C 119.220 318.858,134.350 308.380,141.698 293.508 C 153.921 268.771,125.030 263.554,100.413 286.053 L 96.240 289.867 96.613 284.973 C 96.818 282.281,97.698 274.453,98.569 267.578 C 101.260 246.334,101.230 248.034,98.957 245.761 C 93.953 240.757,89.038 244.123,87.600 253.541 C 87.076 256.964,86.455 260.756,86.219 261.967 L 85.790 264.169 80.943 259.514 C 67.237 246.353,48.219 239.091,40.307 243.998 M54.641 257.308 C 65.154 261.864,75.556 270.355,79.865 277.898 L 81.215 280.261 77.522 279.576 C 64.856 277.227,54.021 269.623,48.877 259.471 C 45.885 253.567,45.951 253.542,54.641 257.308 M168.359 258.962 C 177.134 263.278,183.748 268.620,188.224 275.005 L 191.682 279.938 187.442 279.443 C 177.121 278.240,164.228 268.989,159.319 259.263 L 156.908 254.487 159.118 254.995 C 160.334 255.274,164.492 257.059,168.359 258.962 M275.735 257.308 C 286.248 261.864,296.650 270.355,300.959 277.898 L 302.309 280.261 298.615 279.576 C 285.949 277.227,275.115 269.623,269.971 259.471 C 266.979 253.567,267.044 253.542,275.735 257.308 M132.031 284.070 C 132.031 291.614,115.502 305.501,103.536 308.011 C 98.123 309.146,97.747 308.697,100.637 304.547 C 107.143 295.204,132.031 278.971,132.031 284.070 M240.476 288.453 C 234.829 299.067,216.543 310.853,209.410 308.475 C 204.554 306.857,225.814 289.286,238.076 284.783 C 243.056 282.955,243.246 283.245,240.476 288.453 M353.125 284.070 C 353.125 291.614,336.596 305.501,324.630 308.011 C 319.217 309.146,318.841 308.697,321.731 304.547 C 328.237 295.204,353.125 278.971,353.125 284.070 M116.147 371.734 L 120.965 373.331 126.303 371.448 C 135.492 368.205,142.409 369.191,150.554 374.904 C 156.210 378.872,156.861 378.878,163.234 375.031 C 172.781 369.269,182.692 368.192,193.486 371.744 L 198.300 373.329 204.024 371.338 C 214.110 367.831,222.305 369.645,230.578 377.217 C 236.330 382.481,238.913 382.650,244.164 378.105 C 253.622 369.919,264.995 367.614,277.043 371.439 C 282.691 373.233,283.244 373.277,286.252 372.173 C 292.811 369.766,295.038 369.359,299.625 369.726 C 305.442 370.193,311.134 372.963,315.870 377.632 C 318.514 380.238,320.209 381.221,322.773 381.636 C 326.438 382.230,331.760 384.330,334.550 386.285 C 336.123 387.386,323.957 387.500,204.555 387.500 L 72.824 387.500 78.404 381.746 C 89.648 370.151,101.714 366.950,116.147 371.734 " stroke="none" fill="#000000" fill-rule="evenodd"></path></g></svg>